# MagicaVoxel @ Ephtracy

# group
o 

# material
mtllib ko-nwotunaguyatu.mtl
usemtl palette

# normals
vn -1 0 0
vn 1 0 0
vn 0 0 1
vn 0 0 -1
vn 0 -1 0
vn 0 1 0

# texcoords
vt 0.0175781 0.5
vt 0.267578 0.5

# verts
v -4 0.3 0.0999999
v -4 0.3 -0.4
v -4 0.4 0.0999999
v -4 0.4 -0.4
v -3.7 0.2 -0.1
v -3.7 0.2 -0.2
v -3.7 0.3 -7.45058e-08
v -3.7 0.3 -0.1
v -3.7 0.3 -0.2
v -3.7 0.3 -0.3
v -3.7 0.4 -7.45058e-08
v -3.7 0.4 -0.3
v -2.6 0.3 -0.2
v -2.6 0.3 -0.3
v -2.6 0.4 -0.2
v -2.6 0.4 -0.3
v 0.1 0.3 -0.2
v 0.1 0.3 -0.3
v 0.1 0.4 -0.2
v 0.1 0.4 -0.3
v 0.5 0.4 -0.1
v 0.5 0.4 -0.2
v 0.5 0.5 -0.1
v 0.5 0.5 -0.2
v 3.4 0.2 -0.1
v 3.4 0.2 -0.2
v 3.4 0.3 -7.45058e-08
v 3.4 0.3 -0.1
v 3.4 0.3 -0.2
v 3.4 0.4 -7.45058e-08
v 3.4 0.4 -0.1
v 3.6 0.3 0.0999999
v 3.6 0.3 -7.45058e-08
v 3.6 0.3 -0.3
v 3.6 0.3 -0.4
v 3.6 0.4 0.0999999
v 3.6 0.4 -7.45058e-08
v 3.6 0.4 -0.3
v 3.6 0.4 -0.4
v 3.9 0.3 -7.45058e-08
v 3.9 0.3 -0.3
v 3.9 0.4 -7.45058e-08
v 3.9 0.4 -0.3
v -3.9 0.3 -7.45058e-08
v -3.9 0.3 -0.3
v -3.9 0.4 -7.45058e-08
v -3.9 0.4 -0.3
v -3.6 0.3 0.0999999
v -3.6 0.3 -7.45058e-08
v -3.6 0.3 -0.3
v -3.6 0.3 -0.4
v -3.6 0.4 0.0999999
v -3.6 0.4 -7.45058e-08
v -3.6 0.4 -0.3
v -3.6 0.4 -0.4
v -3.3 0.3 -0.2
v -3.3 0.3 -0.3
v -3.3 0.4 -0.2
v -3.3 0.4 -0.3
v -2.5 0.3 -0.2
v -2.5 0.3 -0.3
v -2.5 0.4 -0.2
v -2.5 0.4 -0.3
v -0.2 0.3 -7.45058e-08
v -0.2 0.3 -0.1
v -0.2 0.4 -7.45058e-08
v -0.2 0.4 -0.1
v 0.6 0.2 -0.1
v 0.6 0.2 -0.2
v 0.6 0.3 -0.1
v 0.6 0.3 -0.2
v 3.6 0.2 -0.1
v 3.6 0.2 -0.2
v 3.6 0.3 -7.45058e-08
v 3.6 0.3 -0.1
v 3.6 0.3 -0.2
v 3.6 0.3 -0.3
v 3.6 0.4 -7.45058e-08
v 3.6 0.4 -0.1
v 3.6 0.4 -0.2
v 3.6 0.4 -0.3
v 3.6 0.5 -0.1
v 3.6 0.5 -0.2
v 3.9 0.3 0.0999999
v 3.9 0.3 -7.45058e-08
v 3.9 0.3 -0.3
v 3.9 0.3 -0.4
v 3.9 0.4 0.0999999
v 3.9 0.4 -7.45058e-08
v 3.9 0.4 -0.3
v 3.9 0.4 -0.4
v 4 0.3 -7.45058e-08
v 4 0.3 -0.3
v 4 0.4 -7.45058e-08
v 4 0.4 -0.3
v -4 0.3 0.0999999
v -4 0.4 0.0999999
v -3.6 0.3 0.0999999
v -3.6 0.4 0.0999999
v 3.6 0.3 0.0999999
v 3.6 0.4 0.0999999
v 3.9 0.3 0.0999999
v 3.9 0.4 0.0999999
v -3.6 0.3 -7.45058e-08
v -3.6 0.4 -7.45058e-08
v -3.3 0.3 -7.45058e-08
v -3.3 0.4 -7.45058e-08
v -2.6 0.3 -7.45058e-08
v -2.6 0.4 -7.45058e-08
v -2 0.3 -7.45058e-08
v -2 0.4 -7.45058e-08
v -1.3 0.3 -7.45058e-08
v -1.3 0.4 -7.45058e-08
v -0.7 0.3 -7.45058e-08
v -0.7 0.4 -7.45058e-08
v -0.2 0.3 -7.45058e-08
v -0.2 0.4 -7.45058e-08
v 3.4 0.3 -7.45058e-08
v 3.4 0.4 -7.45058e-08
v 3.6 0.3 -7.45058e-08
v 3.6 0.4 -7.45058e-08
v 3.9 0.3 -7.45058e-08
v 3.9 0.4 -7.45058e-08
v 4 0.3 -7.45058e-08
v 4 0.4 -7.45058e-08
v -3.7 0.2 -0.1
v -3.7 0.3 -0.1
v -3.3 0.2 -0.1
v -3.3 0.3 -0.1
v -2.6 0.2 -0.1
v -2.6 0.3 -0.1
v -2 0.2 -0.1
v -2 0.3 -0.1
v -1.3 0.2 -0.1
v -1.3 0.3 -0.1
v -0.7 0.2 -0.1
v -0.7 0.3 -0.1
v -0.2 0.3 -0.1
v -0.2 0.4 -0.1
v 0.1 0.2 -0.1
v 0.1 0.4 -0.1
v 0.5 0.4 -0.1
v 0.5 0.5 -0.1
v 0.6 0.2 -0.1
v 0.6 0.3 -0.1
v 0.9 0.3 -0.1
v 0.9 0.5 -0.1
v 1.8 0.3 -0.1
v 1.8 0.5 -0.1
v 2.6 0.3 -0.1
v 2.6 0.5 -0.1
v 3.4 0.2 -0.1
v 3.4 0.3 -0.1
v 3.4 0.4 -0.1
v 3.4 0.5 -0.1
v 3.6 0.2 -0.1
v 3.6 0.3 -0.1
v 3.6 0.4 -0.1
v 3.6 0.5 -0.1
v -3.9 0.3 -0.3
v -3.9 0.4 -0.3
v -3.7 0.3 -0.3
v -3.7 0.4 -0.3
v 3.6 0.3 -0.3
v 3.6 0.4 -0.3
v 3.9 0.3 -0.3
v 3.9 0.4 -0.3
v -3.9 0.3 -7.45058e-08
v -3.9 0.4 -7.45058e-08
v -3.7 0.3 -7.45058e-08
v -3.7 0.4 -7.45058e-08
v 3.6 0.3 -7.45058e-08
v 3.6 0.4 -7.45058e-08
v 3.9 0.3 -7.45058e-08
v 3.9 0.4 -7.45058e-08
v -3.7 0.2 -0.2
v -3.7 0.3 -0.2
v -3.3 0.2 -0.2
v -3.3 0.3 -0.2
v -3.3 0.4 -0.2
v -2.6 0.2 -0.2
v -2.6 0.3 -0.2
v -2.6 0.4 -0.2
v -2.5 0.3 -0.2
v -2.5 0.4 -0.2
v -2 0.2 -0.2
v -2 0.4 -0.2
v -1.3 0.2 -0.2
v -1.3 0.4 -0.2
v -0.7 0.2 -0.2
v -0.7 0.4 -0.2
v 0.1 0.2 -0.2
v 0.1 0.3 -0.2
v 0.1 0.4 -0.2
v 0.5 0.4 -0.2
v 0.5 0.5 -0.2
v 0.6 0.2 -0.2
v 0.6 0.3 -0.2
v 0.9 0.4 -0.2
v 0.9 0.5 -0.2
v 1.8 0.4 -0.2
v 1.8 0.5 -0.2
v 2.6 0.4 -0.2
v 2.6 0.5 -0.2
v 3.4 0.2 -0.2
v 3.4 0.3 -0.2
v 3.4 0.4 -0.2
v 3.4 0.5 -0.2
v 3.6 0.2 -0.2
v 3.6 0.3 -0.2
v 3.6 0.4 -0.2
v 3.6 0.5 -0.2
v -3.6 0.3 -0.3
v -3.6 0.4 -0.3
v -3.3 0.3 -0.3
v -3.3 0.4 -0.3
v -2.6 0.3 -0.3
v -2.6 0.4 -0.3
v -2.5 0.3 -0.3
v -2.5 0.4 -0.3
v 0.1 0.3 -0.3
v 0.1 0.4 -0.3
v 0.9 0.3 -0.3
v 0.9 0.4 -0.3
v 1.8 0.3 -0.3
v 1.8 0.4 -0.3
v 2.6 0.3 -0.3
v 2.6 0.4 -0.3
v 3.4 0.3 -0.3
v 3.4 0.4 -0.3
v 3.6 0.3 -0.3
v 3.6 0.4 -0.3
v 3.9 0.3 -0.3
v 3.9 0.4 -0.3
v 4 0.3 -0.3
v 4 0.4 -0.3
v -4 0.3 -0.4
v -4 0.4 -0.4
v -3.6 0.3 -0.4
v -3.6 0.4 -0.4
v 3.6 0.3 -0.4
v 3.6 0.4 -0.4
v 3.9 0.3 -0.4
v 3.9 0.4 -0.4
v -3.7 0.2 -0.1
v -3.3 0.2 -0.1
v -2.6 0.2 -0.1
v -2 0.2 -0.1
v -1.3 0.2 -0.1
v -0.7 0.2 -0.1
v 0.1 0.2 -0.1
v 0.6 0.2 -0.1
v 3.4 0.2 -0.1
v 3.6 0.2 -0.1
v -3.7 0.2 -0.2
v -3.3 0.2 -0.2
v -2.6 0.2 -0.2
v -2 0.2 -0.2
v -1.3 0.2 -0.2
v -0.7 0.2 -0.2
v 0.1 0.2 -0.2
v 0.6 0.2 -0.2
v 3.4 0.2 -0.2
v 3.6 0.2 -0.2
v -4 0.3 0.0999999
v -3.6 0.3 0.0999999
v 3.6 0.3 0.0999999
v 3.9 0.3 0.0999999
v -3.9 0.3 -7.45058e-08
v -3.7 0.3 -7.45058e-08
v -3.6 0.3 -7.45058e-08
v -3.3 0.3 -7.45058e-08
v -2.6 0.3 -7.45058e-08
v -2 0.3 -7.45058e-08
v -1.3 0.3 -7.45058e-08
v -0.7 0.3 -7.45058e-08
v -0.2 0.3 -7.45058e-08
v 3.4 0.3 -7.45058e-08
v 3.6 0.3 -7.45058e-08
v 3.9 0.3 -7.45058e-08
v 4 0.3 -7.45058e-08
v -3.7 0.3 -0.1
v -3.3 0.3 -0.1
v -2.6 0.3 -0.1
v -2 0.3 -0.1
v -1.3 0.3 -0.1
v -0.7 0.3 -0.1
v -0.2 0.3 -0.1
v 0.6 0.3 -0.1
v 0.9 0.3 -0.1
v 1.8 0.3 -0.1
v 2.6 0.3 -0.1
v 3.4 0.3 -0.1
v 3.6 0.3 -0.1
v -3.7 0.3 -0.2
v -3.3 0.3 -0.2
v -2.6 0.3 -0.2
v -2.5 0.3 -0.2
v 0.1 0.3 -0.2
v 0.6 0.3 -0.2
v 3.4 0.3 -0.2
v 3.6 0.3 -0.2
v -3.9 0.3 -0.3
v -3.7 0.3 -0.3
v -3.6 0.3 -0.3
v -3.3 0.3 -0.3
v -2.6 0.3 -0.3
v -2.5 0.3 -0.3
v 0.1 0.3 -0.3
v 0.9 0.3 -0.3
v 1.8 0.3 -0.3
v 2.6 0.3 -0.3
v 3.4 0.3 -0.3
v 3.6 0.3 -0.3
v 3.9 0.3 -0.3
v 4 0.3 -0.3
v -4 0.3 -0.4
v -3.6 0.3 -0.4
v 3.6 0.3 -0.4
v 3.9 0.3 -0.4
v -4 0.4 0.0999999
v -3.6 0.4 0.0999999
v 3.6 0.4 0.0999999
v 3.9 0.4 0.0999999
v -3.9 0.4 -7.45058e-08
v -3.7 0.4 -7.45058e-08
v -3.6 0.4 -7.45058e-08
v -3.3 0.4 -7.45058e-08
v -2.6 0.4 -7.45058e-08
v -2 0.4 -7.45058e-08
v -1.3 0.4 -7.45058e-08
v -0.7 0.4 -7.45058e-08
v -0.2 0.4 -7.45058e-08
v 3.4 0.4 -7.45058e-08
v 3.6 0.4 -7.45058e-08
v 3.9 0.4 -7.45058e-08
v 4 0.4 -7.45058e-08
v -0.2 0.4 -0.1
v 0.1 0.4 -0.1
v 0.5 0.4 -0.1
v 3.4 0.4 -0.1
v 3.6 0.4 -0.1
v -3.3 0.4 -0.2
v -2.6 0.4 -0.2
v -2.5 0.4 -0.2
v -2 0.4 -0.2
v -1.3 0.4 -0.2
v -0.7 0.4 -0.2
v 0.1 0.4 -0.2
v 0.5 0.4 -0.2
v 0.9 0.4 -0.2
v 1.8 0.4 -0.2
v 2.6 0.4 -0.2
v 3.4 0.4 -0.2
v 3.6 0.4 -0.2
v -3.9 0.4 -0.3
v -3.7 0.4 -0.3
v -3.6 0.4 -0.3
v -3.3 0.4 -0.3
v -2.6 0.4 -0.3
v -2.5 0.4 -0.3
v 0.1 0.4 -0.3
v 0.9 0.4 -0.3
v 1.8 0.4 -0.3
v 2.6 0.4 -0.3
v 3.4 0.4 -0.3
v 3.6 0.4 -0.3
v 3.9 0.4 -0.3
v 4 0.4 -0.3
v -4 0.4 -0.4
v -3.6 0.4 -0.4
v 3.6 0.4 -0.4
v 3.9 0.4 -0.4
v 0.5 0.5 -0.1
v 0.9 0.5 -0.1
v 1.8 0.5 -0.1
v 2.6 0.5 -0.1
v 3.4 0.5 -0.1
v 3.6 0.5 -0.1
v 0.5 0.5 -0.2
v 0.9 0.5 -0.2
v 1.8 0.5 -0.2
v 2.6 0.5 -0.2
v 3.4 0.5 -0.2
v 3.6 0.5 -0.2

# faces
f 3/2/1 2/2/1 1/2/1
f 4/2/1 2/2/1 3/2/1
f 8/2/1 6/2/1 5/2/1
f 9/2/1 6/2/1 8/2/1
f 11/2/1 8/2/1 7/2/1
f 11/2/1 10/2/1 9/2/1
f 11/2/1 9/2/1 8/2/1
f 12/2/1 10/2/1 11/2/1
f 15/2/1 14/2/1 13/2/1
f 16/2/1 14/2/1 15/2/1
f 19/2/1 18/2/1 17/2/1
f 20/2/1 18/2/1 19/2/1
f 23/2/1 22/2/1 21/2/1
f 24/2/1 22/2/1 23/2/1
f 28/2/1 26/2/1 25/2/1
f 29/2/1 26/2/1 28/2/1
f 30/2/1 28/2/1 27/2/1
f 31/2/1 28/2/1 30/2/1
f 36/2/1 33/2/1 32/2/1
f 37/2/1 33/2/1 36/2/1
f 38/2/1 35/2/1 34/2/1
f 39/2/1 35/2/1 38/2/1
f 42/2/1 41/2/1 40/2/1
f 43/2/1 41/2/1 42/2/1
f 44/2/2 45/2/2 46/2/2
f 46/2/2 45/2/2 47/2/2
f 48/2/2 49/2/2 52/2/2
f 52/2/2 49/2/2 53/2/2
f 50/2/2 51/2/2 54/2/2
f 54/2/2 51/2/2 55/2/2
f 56/2/2 57/2/2 58/2/2
f 58/2/2 57/2/2 59/2/2
f 60/2/2 61/2/2 62/2/2
f 62/2/2 61/2/2 63/2/2
f 64/1/2 65/1/2 66/1/2
f 66/1/2 65/1/2 67/1/2
f 68/2/2 69/2/2 70/2/2
f 70/2/2 69/2/2 71/2/2
f 72/2/2 73/2/2 75/2/2
f 75/2/2 73/2/2 76/2/2
f 74/2/2 75/2/2 78/2/2
f 76/2/2 77/2/2 78/2/2
f 75/2/2 76/2/2 78/2/2
f 78/2/2 77/2/2 79/2/2
f 79/2/2 77/2/2 80/2/2
f 80/2/2 77/2/2 81/2/2
f 79/2/2 80/2/2 82/2/2
f 82/2/2 80/2/2 83/2/2
f 84/2/2 85/2/2 88/2/2
f 88/2/2 85/2/2 89/2/2
f 86/2/2 87/2/2 90/2/2
f 90/2/2 87/2/2 91/2/2
f 92/2/2 93/2/2 94/2/2
f 94/2/2 93/2/2 95/2/2
f 98/2/3 97/2/3 96/2/3
f 99/2/3 97/2/3 98/2/3
f 102/2/3 101/2/3 100/2/3
f 103/2/3 101/2/3 102/2/3
f 106/2/3 105/2/3 104/2/3
f 107/2/3 105/2/3 106/2/3
f 108/1/3 107/1/3 106/1/3
f 109/1/3 107/1/3 108/1/3
f 110/2/3 109/2/3 108/2/3
f 111/2/3 109/2/3 110/2/3
f 112/1/3 111/1/3 110/1/3
f 113/1/3 111/1/3 112/1/3
f 114/2/3 113/2/3 112/2/3
f 115/2/3 113/2/3 114/2/3
f 116/1/3 115/1/3 114/1/3
f 117/1/3 115/1/3 116/1/3
f 120/2/3 119/2/3 118/2/3
f 121/2/3 119/2/3 120/2/3
f 124/2/3 123/2/3 122/2/3
f 125/2/3 123/2/3 124/2/3
f 128/2/3 127/2/3 126/2/3
f 129/2/3 127/2/3 128/2/3
f 130/1/3 129/1/3 128/1/3
f 131/1/3 129/1/3 130/1/3
f 132/2/3 131/2/3 130/2/3
f 133/2/3 131/2/3 132/2/3
f 134/1/3 133/1/3 132/1/3
f 135/1/3 133/1/3 134/1/3
f 136/2/3 135/2/3 134/2/3
f 137/2/3 135/2/3 136/2/3
f 138/1/3 137/1/3 136/1/3
f 140/1/3 138/1/3 136/1/3
f 140/1/3 139/1/3 138/1/3
f 141/1/3 139/1/3 140/1/3
f 142/2/3 141/2/3 140/2/3
f 144/2/3 142/2/3 140/2/3
f 144/2/3 143/2/3 142/2/3
f 145/2/3 143/2/3 144/2/3
f 146/2/3 143/2/3 145/2/3
f 147/2/3 143/2/3 146/2/3
f 148/1/3 147/1/3 146/1/3
f 149/1/3 147/1/3 148/1/3
f 150/2/3 149/2/3 148/2/3
f 151/2/3 149/2/3 150/2/3
f 153/1/3 151/1/3 150/1/3
f 154/1/3 151/1/3 153/1/3
f 155/1/3 151/1/3 154/1/3
f 156/2/3 153/2/3 152/2/3
f 157/2/3 153/2/3 156/2/3
f 158/2/3 155/2/3 154/2/3
f 159/2/3 155/2/3 158/2/3
f 162/2/3 161/2/3 160/2/3
f 163/2/3 161/2/3 162/2/3
f 166/2/3 165/2/3 164/2/3
f 167/2/3 165/2/3 166/2/3
f 168/2/4 169/2/4 170/2/4
f 170/2/4 169/2/4 171/2/4
f 172/2/4 173/2/4 174/2/4
f 174/2/4 173/2/4 175/2/4
f 176/2/4 177/2/4 178/2/4
f 178/2/4 177/2/4 179/2/4
f 178/1/4 179/1/4 181/1/4
f 179/1/4 180/1/4 181/1/4
f 181/1/4 180/1/4 182/1/4
f 182/1/4 180/1/4 183/1/4
f 181/2/4 182/2/4 184/2/4
f 181/2/4 184/2/4 186/2/4
f 184/2/4 185/2/4 186/2/4
f 186/2/4 185/2/4 187/2/4
f 186/1/4 187/1/4 188/1/4
f 188/1/4 187/1/4 189/1/4
f 188/2/4 189/2/4 190/2/4
f 190/2/4 189/2/4 191/2/4
f 190/1/4 191/1/4 192/1/4
f 192/1/4 191/1/4 193/1/4
f 193/1/4 191/1/4 194/1/4
f 192/2/4 193/2/4 197/2/4
f 197/2/4 193/2/4 198/2/4
f 195/2/4 196/2/4 199/2/4
f 199/2/4 196/2/4 200/2/4
f 199/1/4 200/1/4 201/1/4
f 201/1/4 200/1/4 202/1/4
f 201/2/4 202/2/4 203/2/4
f 203/2/4 202/2/4 204/2/4
f 203/1/4 204/1/4 207/1/4
f 207/1/4 204/1/4 208/1/4
f 205/2/4 206/2/4 209/2/4
f 209/2/4 206/2/4 210/2/4
f 207/2/4 208/2/4 211/2/4
f 211/2/4 208/2/4 212/2/4
f 213/2/4 214/2/4 215/2/4
f 215/2/4 214/2/4 216/2/4
f 217/2/4 218/2/4 219/2/4
f 219/2/4 218/2/4 220/2/4
f 221/2/4 222/2/4 223/2/4
f 223/2/4 222/2/4 224/2/4
f 223/1/4 224/1/4 225/1/4
f 225/1/4 224/1/4 226/1/4
f 225/2/4 226/2/4 227/2/4
f 227/2/4 226/2/4 228/2/4
f 227/1/4 228/1/4 229/1/4
f 229/1/4 228/1/4 230/1/4
f 229/2/4 230/2/4 231/2/4
f 231/2/4 230/2/4 232/2/4
f 233/2/4 234/2/4 235/2/4
f 235/2/4 234/2/4 236/2/4
f 237/2/4 238/2/4 239/2/4
f 239/2/4 238/2/4 240/2/4
f 241/2/4 242/2/4 243/2/4
f 243/2/4 242/2/4 244/2/4
f 255/2/5 246/2/5 245/2/5
f 256/1/5 247/1/5 246/1/5
f 256/2/5 246/2/5 255/2/5
f 257/2/5 248/2/5 247/2/5
f 257/1/5 247/1/5 256/1/5
f 258/1/5 249/1/5 248/1/5
f 258/2/5 248/2/5 257/2/5
f 259/2/5 250/2/5 249/2/5
f 259/1/5 249/1/5 258/1/5
f 260/1/5 251/1/5 250/1/5
f 260/2/5 250/2/5 259/2/5
f 261/2/5 252/2/5 251/2/5
f 261/1/5 251/1/5 260/1/5
f 262/2/5 252/2/5 261/2/5
f 263/2/5 254/2/5 253/2/5
f 264/2/5 254/2/5 263/2/5
f 269/2/5 266/2/5 265/2/5
f 270/2/5 266/2/5 269/2/5
f 271/2/5 266/2/5 270/2/5
f 279/2/5 268/2/5 267/2/5
f 280/2/5 268/2/5 279/2/5
f 282/2/5 271/2/5 270/2/5
f 282/2/5 272/2/5 271/2/5
f 283/1/5 273/1/5 272/1/5
f 283/2/5 272/2/5 282/2/5
f 284/2/5 274/2/5 273/2/5
f 284/1/5 273/1/5 283/1/5
f 285/1/5 275/1/5 274/1/5
f 285/2/5 274/2/5 284/2/5
f 286/2/5 276/2/5 275/2/5
f 286/1/5 275/1/5 285/1/5
f 287/1/5 277/1/5 276/1/5
f 287/2/5 276/2/5 286/2/5
f 288/1/5 277/1/5 287/1/5
f 293/2/5 279/2/5 278/2/5
f 294/2/5 279/2/5 293/2/5
f 300/2/5 290/2/5 289/2/5
f 301/1/5 293/1/5 292/1/5
f 303/2/5 269/2/5 265/2/5
f 304/2/5 296/2/5 295/2/5
f 305/2/5 296/2/5 304/2/5
f 306/2/5 296/2/5 305/2/5
f 307/2/5 298/2/5 297/2/5
f 308/2/5 298/2/5 307/2/5
f 309/2/5 300/2/5 299/2/5
f 310/1/5 291/1/5 290/1/5
f 310/2/5 300/2/5 309/2/5
f 310/2/5 290/2/5 300/2/5
f 311/2/5 292/2/5 291/2/5
f 311/1/5 291/1/5 310/1/5
f 312/1/5 301/1/5 292/1/5
f 312/2/5 292/2/5 311/2/5
f 313/2/5 302/2/5 301/2/5
f 313/1/5 301/1/5 312/1/5
f 314/2/5 302/2/5 313/2/5
f 315/2/5 281/2/5 280/2/5
f 316/2/5 281/2/5 315/2/5
f 317/2/5 305/2/5 304/2/5
f 317/2/5 304/2/5 303/2/5
f 317/2/5 303/2/5 265/2/5
f 318/2/5 305/2/5 317/2/5
f 319/2/5 315/2/5 314/2/5
f 320/2/5 315/2/5 319/2/5
f 321/2/6 322/2/6 325/2/6
f 325/2/6 322/2/6 326/2/6
f 326/2/6 322/2/6 327/2/6
f 323/2/6 324/2/6 335/2/6
f 335/2/6 324/2/6 336/2/6
f 332/1/6 333/1/6 338/1/6
f 334/2/6 335/2/6 341/2/6
f 341/2/6 335/2/6 342/2/6
f 326/2/6 327/2/6 343/2/6
f 327/2/6 328/2/6 343/2/6
f 328/1/6 329/1/6 343/1/6
f 329/2/6 330/2/6 344/2/6
f 343/1/6 329/1/6 344/1/6
f 344/2/6 330/2/6 345/2/6
f 330/1/6 331/1/6 346/1/6
f 345/2/6 330/2/6 346/2/6
f 331/2/6 332/2/6 347/2/6
f 346/1/6 331/1/6 347/1/6
f 338/1/6 339/1/6 348/1/6
f 347/2/6 332/2/6 348/2/6
f 332/1/6 338/1/6 348/1/6
f 339/2/6 340/2/6 349/2/6
f 348/1/6 339/1/6 349/1/6
f 349/2/6 340/2/6 350/2/6
f 321/2/6 325/2/6 356/2/6
f 326/2/6 343/2/6 357/2/6
f 357/2/6 343/2/6 358/2/6
f 358/2/6 343/2/6 359/2/6
f 344/2/6 345/2/6 360/2/6
f 360/2/6 345/2/6 361/2/6
f 350/2/6 351/2/6 362/2/6
f 349/2/6 350/2/6 362/2/6
f 351/1/6 352/1/6 363/1/6
f 362/2/6 351/2/6 363/2/6
f 352/2/6 353/2/6 364/2/6
f 363/1/6 352/1/6 364/1/6
f 353/1/6 354/1/6 365/1/6
f 364/2/6 353/2/6 365/2/6
f 354/2/6 355/2/6 366/2/6
f 365/1/6 354/1/6 366/1/6
f 366/2/6 355/2/6 367/2/6
f 336/2/6 337/2/6 368/2/6
f 368/2/6 337/2/6 369/2/6
f 357/2/6 358/2/6 370/2/6
f 356/2/6 357/2/6 370/2/6
f 321/2/6 356/2/6 370/2/6
f 370/2/6 358/2/6 371/2/6
f 367/2/6 368/2/6 372/2/6
f 372/2/6 368/2/6 373/2/6
f 374/2/6 375/2/6 380/2/6
f 375/1/6 376/1/6 381/1/6
f 380/2/6 375/2/6 381/2/6
f 376/2/6 377/2/6 382/2/6
f 381/1/6 376/1/6 382/1/6
f 377/1/6 378/1/6 383/1/6
f 382/2/6 377/2/6 383/2/6
f 378/2/6 379/2/6 384/2/6
f 383/1/6 378/1/6 384/1/6
f 384/2/6 379/2/6 385/2/6
