# MagicaVoxel @ Ephtracy

# group
o 

# material
mtllib can_2.mtl
usemtl palette

# normals
vn -1 0 0
vn 1 0 0
vn 0 0 1
vn 0 0 -1
vn 0 -1 0
vn 0 1 0

# texcoords
vt 0.146484 0.5
vt 0.771484 0.5
vt 0.923828 0.5
vt 0.958984 0.5
vt 0.990234 0.5

# verts
v -0.3 0.1 0.7
v -0.3 0.1 0.6
v -0.3 0.1 0.2
v -0.3 0.1 0.1
v -0.3 0.1 -0.1
v -0.3 0.1 -0.6
v -0.3 0.1 -0.7
v -0.3 0.2 0.2
v -0.3 0.2 0.1
v -0.3 0.2 0
v -0.3 0.2 -0.1
v -0.3 0.2 -0.2
v -0.3 0.3 0.1
v -0.3 0.3 0
v -0.3 0.3 -0.1
v -0.3 0.4 0
v -0.3 0.4 -0.1
v -0.3 0.4 -0.2
v -0.3 0.5 0.7
v -0.3 0.5 0.6
v -0.3 0.5 -0.1
v -0.3 0.5 -0.2
v -0.3 0.5 -0.6
v -0.3 0.5 -0.7
v -0.2 0 0.7
v -0.2 0 0.6
v -0.2 0 -0.6
v -0.2 0 -0.7
v -0.2 0.1 0.7
v -0.2 0.1 0.6
v -0.2 0.1 0.2
v -0.2 0.1 0.1
v -0.2 0.1 -0.1
v -0.2 0.1 -0.6
v -0.2 0.1 -0.7
v -0.2 0.5 0.7
v -0.2 0.5 0.6
v -0.2 0.5 0.2
v -0.2 0.5 0.1
v -0.2 0.5 -0.1
v -0.2 0.5 -0.2
v -0.2 0.5 -0.6
v -0.2 0.5 -0.7
v -0.2 0.6 0.7
v -0.2 0.6 0.6
v -0.2 0.6 0.2
v -0.2 0.6 0.1
v -0.2 0.6 -0.1
v -0.2 0.6 -0.6
v -0.2 0.6 -0.7
v 0.2 0 0.7
v 0.2 0 0.6
v 0.2 0 -0.6
v 0.2 0 -0.7
v 0.2 0.1 0.7
v 0.2 0.1 0.6
v 0.2 0.1 -0.1
v 0.2 0.1 -0.2
v 0.2 0.1 -0.6
v 0.2 0.1 -0.7
v 0.2 0.5 0.7
v 0.2 0.5 0.6
v 0.2 0.5 0.2
v 0.2 0.5 0.1
v 0.2 0.5 -0.1
v 0.2 0.5 -0.2
v 0.2 0.5 -0.6
v 0.2 0.5 -0.7
v 0.2 0.6 0.7
v 0.2 0.6 0.6
v 0.2 0.6 -0.1
v 0.2 0.6 -0.2
v 0.2 0.6 -0.6
v 0.2 0.6 -0.7
v 0.3 0.1 0.7
v 0.3 0.1 0.6
v 0.3 0.1 -0.1
v 0.3 0.1 -0.2
v 0.3 0.1 -0.6
v 0.3 0.1 -0.7
v 0.3 0.2 0
v 0.3 0.2 -0.1
v 0.3 0.2 -0.2
v 0.3 0.3 0.1
v 0.3 0.3 0
v 0.3 0.3 -0.1
v 0.3 0.4 0.2
v 0.3 0.4 0.1
v 0.3 0.4 0
v 0.3 0.4 -0.1
v 0.3 0.4 -0.2
v 0.3 0.5 0.7
v 0.3 0.5 0.6
v 0.3 0.5 0.2
v 0.3 0.5 0.1
v 0.3 0.5 -0.1
v 0.3 0.5 -0.6
v 0.3 0.5 -0.7
v -0.3 0.1 0.7
v -0.3 0.5 0.7
v -0.2 0 0.7
v -0.2 0.1 0.7
v -0.2 0.5 0.7
v -0.2 0.6 0.7
v 0.2 0 0.7
v 0.2 0.1 0.7
v 0.2 0.5 0.7
v 0.2 0.6 0.7
v 0.3 0.1 0.7
v 0.3 0.5 0.7
v -0.3 0.1 -0.7
v -0.3 0.5 -0.7
v -0.2 0 -0.7
v -0.2 0.1 -0.7
v -0.2 0.5 -0.7
v -0.2 0.6 -0.7
v -0.1 0.1 -0.7
v -0.1 0.3 -0.7
v 0.1 0.1 -0.7
v 0.1 0.3 -0.7
v 0.2 0 -0.7
v 0.2 0.1 -0.7
v 0.2 0.5 -0.7
v 0.2 0.6 -0.7
v 0.3 0.1 -0.7
v 0.3 0.5 -0.7
v -0.2 0 0.7
v 0.2 0 0.7
v -0.2 0 0.6
v 0.2 0 0.6
v -0.2 0 -0.6
v 0.2 0 -0.6
v -0.2 0 -0.7
v 0.2 0 -0.7
v -0.3 0.1 0.7
v -0.2 0.1 0.7
v 0.2 0.1 0.7
v 0.3 0.1 0.7
v -0.3 0.1 0.6
v -0.2 0.1 0.6
v 0.2 0.1 0.6
v 0.3 0.1 0.6
v -0.3 0.1 0.2
v -0.2 0.1 0.2
v -0.3 0.1 0.1
v -0.2 0.1 0.1
v -0.3 0.1 -0.1
v -0.2 0.1 -0.1
v 0.2 0.1 -0.1
v 0.3 0.1 -0.1
v 0.2 0.1 -0.2
v 0.3 0.1 -0.2
v -0.3 0.1 -0.6
v -0.2 0.1 -0.6
v 0.2 0.1 -0.6
v 0.3 0.1 -0.6
v -0.3 0.1 -0.7
v -0.2 0.1 -0.7
v 0.2 0.1 -0.7
v 0.3 0.1 -0.7
v -0.3 0.5 0.7
v -0.2 0.5 0.7
v 0.2 0.5 0.7
v 0.3 0.5 0.7
v -0.3 0.5 0.6
v -0.2 0.5 0.6
v 0.2 0.5 0.6
v 0.3 0.5 0.6
v -0.2 0.5 0.2
v 0.2 0.5 0.2
v 0.3 0.5 0.2
v -0.2 0.5 0.1
v 0.2 0.5 0.1
v 0.3 0.5 0.1
v -0.3 0.5 -0.1
v -0.2 0.5 -0.1
v 0.2 0.5 -0.1
v 0.3 0.5 -0.1
v -0.3 0.5 -0.2
v -0.2 0.5 -0.2
v 0.2 0.5 -0.2
v -0.3 0.5 -0.6
v -0.2 0.5 -0.6
v 0.2 0.5 -0.6
v 0.3 0.5 -0.6
v -0.3 0.5 -0.7
v -0.2 0.5 -0.7
v 0.2 0.5 -0.7
v 0.3 0.5 -0.7
v -0.2 0.6 0.7
v 0.2 0.6 0.7
v -0.2 0.6 0.6
v 0.2 0.6 0.6
v -0.2 0.6 0.2
v -0.1 0.6 0.2
v -0.2 0.6 0.1
v -0.1 0.6 0.1
v 2.98023e-08 0.6 0.1
v -0.1 0.6 0
v 2.98023e-08 0.6 0
v 0.1 0.6 0
v -0.2 0.6 -0.1
v -0.1 0.6 -0.1
v 2.98023e-08 0.6 -0.1
v 0.1 0.6 -0.1
v 0.2 0.6 -0.1
v -0.1 0.6 -0.2
v 0.1 0.6 -0.2
v 0.2 0.6 -0.2
v -0.2 0.6 -0.6
v 0.2 0.6 -0.6
v -0.2 0.6 -0.7
v 0.2 0.6 -0.7

# faces
f 8/2/1 3/2/1 2/2/1
f 8/4/1 4/4/1 3/4/1
f 9/1/1 5/1/1 4/1/1
f 9/4/1 4/4/1 8/4/1
f 10/1/1 5/1/1 9/1/1
f 11/2/1 6/2/1 5/2/1
f 11/1/1 5/1/1 10/1/1
f 12/2/1 6/2/1 11/2/1
f 13/4/1 10/4/1 9/4/1
f 13/2/1 9/2/1 8/2/1
f 14/1/1 12/1/1 11/1/1
f 14/4/1 10/4/1 13/4/1
f 14/1/1 11/1/1 10/1/1
f 15/1/1 12/1/1 14/1/1
f 16/2/1 14/2/1 13/2/1
f 16/4/1 15/4/1 14/4/1
f 17/1/1 12/1/1 15/1/1
f 17/4/1 15/4/1 16/4/1
f 18/2/1 6/2/1 12/2/1
f 18/1/1 12/1/1 17/1/1
f 19/3/1 2/3/1 1/3/1
f 20/2/1 17/2/1 16/2/1
f 20/3/1 2/3/1 19/3/1
f 20/2/1 8/2/1 2/2/1
f 20/2/1 13/2/1 8/2/1
f 20/2/1 16/2/1 13/2/1
f 21/4/1 18/4/1 17/4/1
f 21/2/1 17/2/1 20/2/1
f 22/2/1 6/2/1 18/2/1
f 22/4/1 18/4/1 21/4/1
f 23/3/1 7/3/1 6/3/1
f 23/2/1 6/2/1 22/2/1
f 24/3/1 7/3/1 23/3/1
f 29/3/1 26/3/1 25/3/1
f 30/2/1 27/2/1 26/2/1
f 30/3/1 26/3/1 29/3/1
f 31/2/1 27/2/1 30/2/1
f 32/2/1 27/2/1 31/2/1
f 33/2/1 27/2/1 32/2/1
f 34/3/1 28/3/1 27/3/1
f 34/2/1 27/2/1 33/2/1
f 35/3/1 28/3/1 34/3/1
f 44/3/1 37/3/1 36/3/1
f 45/2/1 38/2/1 37/2/1
f 45/3/1 37/3/1 44/3/1
f 46/4/1 39/4/1 38/4/1
f 46/2/1 38/2/1 45/2/1
f 47/1/1 40/1/1 39/1/1
f 47/4/1 39/4/1 46/4/1
f 48/2/1 41/2/1 40/2/1
f 48/1/1 40/1/1 47/1/1
f 48/2/1 42/2/1 41/2/1
f 49/3/1 43/3/1 42/3/1
f 49/2/1 42/2/1 48/2/1
f 50/3/1 43/3/1 49/3/1
f 51/3/2 52/3/2 55/3/2
f 52/2/2 53/2/2 56/2/2
f 55/3/2 52/3/2 56/3/2
f 56/2/2 53/2/2 57/2/2
f 57/2/2 53/2/2 58/2/2
f 53/3/2 54/3/2 59/3/2
f 58/2/2 53/2/2 59/2/2
f 59/3/2 54/3/2 60/3/2
f 61/3/2 62/3/2 69/3/2
f 62/2/2 63/2/2 70/2/2
f 69/3/2 62/3/2 70/3/2
f 63/2/2 64/2/2 70/2/2
f 64/2/2 65/2/2 70/2/2
f 65/4/2 66/4/2 71/4/2
f 70/2/2 65/2/2 71/2/2
f 66/2/2 67/2/2 72/2/2
f 71/4/2 66/4/2 72/4/2
f 67/3/2 68/3/2 73/3/2
f 72/2/2 67/2/2 73/2/2
f 73/3/2 68/3/2 74/3/2
f 76/2/2 77/2/2 81/2/2
f 77/4/2 78/4/2 82/4/2
f 81/2/2 77/2/2 82/2/2
f 78/2/2 79/2/2 83/2/2
f 82/4/2 78/4/2 83/4/2
f 76/2/2 81/2/2 84/2/2
f 81/4/2 82/4/2 85/4/2
f 84/2/2 81/2/2 85/2/2
f 82/1/2 83/1/2 86/1/2
f 85/4/2 82/4/2 86/4/2
f 76/2/2 84/2/2 87/2/2
f 84/4/2 85/4/2 88/4/2
f 87/2/2 84/2/2 88/2/2
f 85/1/2 86/1/2 89/1/2
f 88/4/2 85/4/2 89/4/2
f 86/1/2 83/1/2 90/1/2
f 89/1/2 86/1/2 90/1/2
f 83/2/2 79/2/2 91/2/2
f 90/1/2 83/1/2 91/1/2
f 75/3/2 76/3/2 92/3/2
f 76/2/2 87/2/2 93/2/2
f 92/3/2 76/3/2 93/3/2
f 87/4/2 88/4/2 94/4/2
f 93/2/2 87/2/2 94/2/2
f 89/1/2 90/1/2 95/1/2
f 94/4/2 88/4/2 95/4/2
f 88/1/2 89/1/2 95/1/2
f 90/2/2 91/2/2 96/2/2
f 95/1/2 90/1/2 96/1/2
f 91/2/2 79/2/2 97/2/2
f 96/2/2 91/2/2 97/2/2
f 79/3/2 80/3/2 97/3/2
f 97/3/2 80/3/2 98/3/2
f 102/3/3 100/3/3 99/3/3
f 103/3/3 100/3/3 102/3/3
f 105/3/3 102/3/3 101/3/3
f 105/3/3 104/3/3 103/3/3
f 105/3/3 103/3/3 102/3/3
f 106/3/3 104/3/3 105/3/3
f 107/3/3 104/3/3 106/3/3
f 108/3/3 104/3/3 107/3/3
f 109/3/3 107/3/3 106/3/3
f 110/3/3 107/3/3 109/3/3
f 111/3/4 112/3/4 114/3/4
f 114/3/4 112/3/4 115/3/4
f 113/3/4 114/3/4 117/3/4
f 115/3/4 116/3/4 117/3/4
f 114/3/4 115/3/4 117/3/4
f 117/3/4 116/3/4 118/3/4
f 113/3/4 117/3/4 119/3/4
f 117/5/4 118/5/4 119/5/4
f 118/3/4 116/3/4 120/3/4
f 119/5/4 118/5/4 120/5/4
f 113/3/4 119/3/4 121/3/4
f 119/3/4 120/3/4 121/3/4
f 121/3/4 120/3/4 122/3/4
f 120/3/4 116/3/4 123/3/4
f 122/3/4 120/3/4 123/3/4
f 123/3/4 116/3/4 124/3/4
f 122/3/4 123/3/4 125/3/4
f 125/3/4 123/3/4 126/3/4
f 129/3/5 128/3/5 127/3/5
f 130/3/5 128/3/5 129/3/5
f 131/2/5 130/2/5 129/2/5
f 132/2/5 130/2/5 131/2/5
f 133/3/5 132/3/5 131/3/5
f 134/3/5 132/3/5 133/3/5
f 139/3/5 136/3/5 135/3/5
f 140/3/5 136/3/5 139/3/5
f 141/3/5 138/3/5 137/3/5
f 142/3/5 138/3/5 141/3/5
f 143/2/5 140/2/5 139/2/5
f 144/2/5 140/2/5 143/2/5
f 145/4/5 144/4/5 143/4/5
f 146/4/5 144/4/5 145/4/5
f 147/1/5 146/1/5 145/1/5
f 148/1/5 146/1/5 147/1/5
f 149/2/5 142/2/5 141/2/5
f 150/2/5 142/2/5 149/2/5
f 151/4/5 150/4/5 149/4/5
f 152/4/5 150/4/5 151/4/5
f 153/2/5 148/2/5 147/2/5
f 154/2/5 148/2/5 153/2/5
f 155/2/5 152/2/5 151/2/5
f 156/2/5 152/2/5 155/2/5
f 157/3/5 154/3/5 153/3/5
f 158/3/5 154/3/5 157/3/5
f 159/3/5 156/3/5 155/3/5
f 160/3/5 156/3/5 159/3/5
f 161/3/6 162/3/6 165/3/6
f 165/3/6 162/3/6 166/3/6
f 163/3/6 164/3/6 167/3/6
f 167/3/6 164/3/6 168/3/6
f 165/2/6 166/2/6 169/2/6
f 167/2/6 168/2/6 170/2/6
f 170/2/6 168/2/6 171/2/6
f 165/2/6 169/2/6 172/2/6
f 170/4/6 171/4/6 173/4/6
f 173/4/6 171/4/6 174/4/6
f 165/2/6 172/2/6 175/2/6
f 175/2/6 172/2/6 176/2/6
f 173/1/6 174/1/6 177/1/6
f 177/1/6 174/1/6 178/1/6
f 175/4/6 176/4/6 179/4/6
f 179/4/6 176/4/6 180/4/6
f 177/2/6 178/2/6 181/2/6
f 179/2/6 180/2/6 182/2/6
f 182/2/6 180/2/6 183/2/6
f 181/2/6 178/2/6 184/2/6
f 184/2/6 178/2/6 185/2/6
f 182/3/6 183/3/6 186/3/6
f 186/3/6 183/3/6 187/3/6
f 184/3/6 185/3/6 188/3/6
f 188/3/6 185/3/6 189/3/6
f 190/3/6 191/3/6 192/3/6
f 192/3/6 191/3/6 193/3/6
f 192/2/6 193/2/6 194/2/6
f 194/2/6 193/2/6 195/2/6
f 194/4/6 195/4/6 196/4/6
f 195/2/6 193/2/6 197/2/6
f 196/4/6 195/4/6 197/4/6
f 197/2/6 193/2/6 198/2/6
f 196/1/6 197/1/6 199/1/6
f 197/4/6 198/4/6 199/4/6
f 198/2/6 193/2/6 200/2/6
f 199/4/6 198/4/6 200/4/6
f 200/2/6 193/2/6 201/2/6
f 196/1/6 199/1/6 202/1/6
f 199/1/6 200/1/6 202/1/6
f 202/1/6 200/1/6 203/1/6
f 200/4/6 201/4/6 204/4/6
f 203/1/6 200/1/6 204/1/6
f 201/2/6 193/2/6 205/2/6
f 204/4/6 201/4/6 205/4/6
f 205/2/6 193/2/6 206/2/6
f 203/1/6 204/1/6 207/1/6
f 202/2/6 203/2/6 207/2/6
f 204/1/6 205/1/6 207/1/6
f 205/4/6 206/4/6 208/4/6
f 207/1/6 205/1/6 208/1/6
f 208/4/6 206/4/6 209/4/6
f 202/2/6 207/2/6 210/2/6
f 207/2/6 208/2/6 210/2/6
f 208/2/6 209/2/6 210/2/6
f 210/2/6 209/2/6 211/2/6
f 210/3/6 211/3/6 212/3/6
f 212/3/6 211/3/6 213/3/6
