# MagicaVoxel @ Ephtracy

# group
o 

# material
mtllib juice_1.mtl
usemtl palette

# normals
vn -1 0 0
vn 1 0 0
vn 0 0 1
vn 0 0 -1
vn 0 -1 0
vn 0 1 0

# texcoords
vt 0.150391 0.5
vt 0.330078 0.5
vt 0.388672 0.5
vt 0.962891 0.5

# verts
v -0.8 0.2 0.2
v -0.8 0.2 -2.98023e-08
v -0.8 0.3 0.2
v -0.8 0.3 -2.98023e-08
v -0.3 0 0.3
v -0.3 0 -0.3
v -0.3 0.2 0.1
v -0.3 0.2 -2.98023e-08
v -0.3 0.3 0.1
v -0.3 0.3 -2.98023e-08
v -0.3 0.6 0.3
v -0.3 0.6 -0.3
v -0.7 0.2 0.2
v -0.7 0.2 0.1
v -0.7 0.3 0.2
v -0.7 0.3 0.1
v 0.8 0 0.3
v 0.8 0 -0.3
v 0.8 0.6 0.3
v 0.8 0.6 -0.3
v -0.3 0 0.3
v -0.3 0.6 0.3
v 0.1 0 0.3
v 0.1 0.6 0.3
v 0.2 0 0.3
v 0.2 0.6 0.3
v 0.3 0 0.3
v 0.3 0.6 0.3
v 0.8 0 0.3
v 0.8 0.6 0.3
v -0.8 0.2 0.2
v -0.8 0.3 0.2
v -0.7 0.2 0.2
v -0.7 0.3 0.2
v -0.7 0.2 0.1
v -0.7 0.3 0.1
v -0.3 0.2 0.1
v -0.3 0.3 0.1
v -0.8 0.2 -2.98023e-08
v -0.8 0.3 -2.98023e-08
v -0.3 0.2 -2.98023e-08
v -0.3 0.3 -2.98023e-08
v -0.3 0 -0.3
v -0.3 0.6 -0.3
v 0.1 0 -0.3
v 0.1 0.6 -0.3
v 0.2 0 -0.3
v 0.2 0.6 -0.3
v 0.3 0 -0.3
v 0.3 0.6 -0.3
v 0.8 0 -0.3
v 0.8 0.6 -0.3
v -0.3 0 0.3
v 0.1 0 0.3
v 0.2 0 0.3
v 0.3 0 0.3
v 0.8 0 0.3
v -0.3 0 -0.3
v 0.1 0 -0.3
v 0.2 0 -0.3
v 0.3 0 -0.3
v 0.8 0 -0.3
v -0.8 0.2 0.2
v -0.7 0.2 0.2
v -0.7 0.2 0.1
v -0.3 0.2 0.1
v -0.8 0.2 -2.98023e-08
v -0.3 0.2 -2.98023e-08
v -0.8 0.3 0.2
v -0.7 0.3 0.2
v -0.7 0.3 0.1
v -0.3 0.3 0.1
v -0.8 0.3 -2.98023e-08
v -0.3 0.3 -2.98023e-08
v -0.3 0.6 0.3
v 0.1 0.6 0.3
v 0.2 0.6 0.3
v 0.3 0.6 0.3
v 0.8 0.6 0.3
v -0.3 0.6 -0.3
v 0.1 0.6 -0.3
v 0.2 0.6 -0.3
v 0.3 0.6 -0.3
v 0.8 0.6 -0.3

# faces
f 3/4/1 2/4/1 1/4/1
f 4/4/1 2/4/1 3/4/1
f 7/3/1 6/3/1 5/3/1
f 8/3/1 6/3/1 7/3/1
f 9/3/1 7/3/1 5/3/1
f 10/3/1 6/3/1 8/3/1
f 11/3/1 9/3/1 5/3/1
f 11/3/1 10/3/1 9/3/1
f 12/3/1 6/3/1 10/3/1
f 12/3/1 10/3/1 11/3/1
f 13/4/2 14/4/2 15/4/2
f 15/4/2 14/4/2 16/4/2
f 17/1/2 18/1/2 19/1/2
f 19/1/2 18/1/2 20/1/2
f 23/3/3 22/3/3 21/3/3
f 24/3/3 22/3/3 23/3/3
f 25/1/3 24/1/3 23/1/3
f 26/1/3 24/1/3 25/1/3
f 27/2/3 26/2/3 25/2/3
f 28/2/3 26/2/3 27/2/3
f 29/1/3 28/1/3 27/1/3
f 30/1/3 28/1/3 29/1/3
f 33/4/3 32/4/3 31/4/3
f 34/4/3 32/4/3 33/4/3
f 37/4/3 36/4/3 35/4/3
f 38/4/3 36/4/3 37/4/3
f 39/4/4 40/4/4 41/4/4
f 41/4/4 40/4/4 42/4/4
f 43/3/4 44/3/4 45/3/4
f 45/3/4 44/3/4 46/3/4
f 45/1/4 46/1/4 47/1/4
f 47/1/4 46/1/4 48/1/4
f 47/2/4 48/2/4 49/2/4
f 49/2/4 48/2/4 50/2/4
f 49/1/4 50/1/4 51/1/4
f 51/1/4 50/1/4 52/1/4
f 58/3/5 54/3/5 53/3/5
f 59/1/5 55/1/5 54/1/5
f 59/3/5 54/3/5 58/3/5
f 60/2/5 56/2/5 55/2/5
f 60/1/5 55/1/5 59/1/5
f 61/1/5 57/1/5 56/1/5
f 61/2/5 56/2/5 60/2/5
f 62/1/5 57/1/5 61/1/5
f 65/4/5 64/4/5 63/4/5
f 67/4/5 65/4/5 63/4/5
f 67/4/5 66/4/5 65/4/5
f 68/4/5 66/4/5 67/4/5
f 69/4/6 70/4/6 71/4/6
f 69/4/6 71/4/6 73/4/6
f 71/4/6 72/4/6 73/4/6
f 73/4/6 72/4/6 74/4/6
f 75/3/6 76/3/6 80/3/6
f 76/1/6 77/1/6 81/1/6
f 80/3/6 76/3/6 81/3/6
f 77/2/6 78/2/6 82/2/6
f 81/1/6 77/1/6 82/1/6
f 78/1/6 79/1/6 83/1/6
f 82/2/6 78/2/6 83/2/6
f 83/1/6 79/1/6 84/1/6
