# MagicaVoxel @ Ephtracy

# group
o 

# material
mtllib can_1.mtl
usemtl palette

# normals
vn -1 0 0
vn 1 0 0
vn 0 0 1
vn 0 0 -1
vn 0 -1 0
vn 0 1 0

# texcoords
vt 0.146484 0.5
vt 0.923828 0.5
vt 0.962891 0.5
vt 0.990234 0.5

# verts
v -0.3 0.1 0.7
v -0.3 0.1 0.6
v -0.3 0.1 0.1
v -0.3 0.1 0
v -0.3 0.1 -0.6
v -0.3 0.1 -0.7
v -0.3 0.2 0.2
v -0.3 0.2 0.1
v -0.3 0.3 0.2
v -0.3 0.3 0.1
v -0.3 0.3 0
v -0.3 0.3 -0.1
v -0.3 0.4 0.1
v -0.3 0.4 0
v -0.3 0.4 -0.1
v -0.3 0.4 -0.2
v -0.3 0.5 0.7
v -0.3 0.5 0.6
v -0.3 0.5 0
v -0.3 0.5 -0.2
v -0.3 0.5 -0.6
v -0.3 0.5 -0.7
v -0.2 0 0.7
v -0.2 0 0.6
v -0.2 0 0.1
v -0.2 0 -0.1
v -0.2 0 -0.6
v -0.2 0 -0.7
v -0.2 0.1 0.7
v -0.2 0.1 0.6
v -0.2 0.1 0.1
v -0.2 0.1 0
v -0.2 0.1 -0.1
v -0.2 0.1 -0.6
v -0.2 0.1 -0.7
v -0.2 0.5 0.7
v -0.2 0.5 0.6
v -0.2 0.5 0.1
v -0.2 0.5 0
v -0.2 0.5 -0.1
v -0.2 0.5 -0.2
v -0.2 0.5 -0.6
v -0.2 0.5 -0.7
v -0.2 0.6 0.7
v -0.2 0.6 0.6
v -0.2 0.6 0.1
v -0.2 0.6 -0.1
v -0.2 0.6 -0.6
v -0.2 0.6 -0.7
v 0.2 0 0.7
v 0.2 0 0.6
v 0.2 0 0.1
v 0.2 0 -0.3
v 0.2 0 -0.6
v 0.2 0 -0.7
v 0.2 0.1 0.7
v 0.2 0.1 0.6
v 0.2 0.1 0.1
v 0.2 0.1 0
v 0.2 0.1 -0.1
v 0.2 0.1 -0.3
v 0.2 0.1 -0.6
v 0.2 0.1 -0.7
v 0.2 0.5 0.7
v 0.2 0.5 0.6
v 0.2 0.5 0.2
v 0.2 0.5 0.1
v 0.2 0.5 0
v 0.2 0.5 -0.3
v 0.2 0.5 -0.6
v 0.2 0.5 -0.7
v 0.2 0.6 0.7
v 0.2 0.6 0.6
v 0.2 0.6 0.1
v 0.2 0.6 -0.3
v 0.2 0.6 -0.6
v 0.2 0.6 -0.7
v 0.3 0.1 0.7
v 0.3 0.1 0.6
v 0.3 0.1 0
v 0.3 0.1 -0.1
v 0.3 0.1 -0.6
v 0.3 0.1 -0.7
v 0.3 0.2 0.1
v 0.3 0.2 0
v 0.3 0.2 -0.1
v 0.3 0.2 -0.2
v 0.3 0.4 0.2
v 0.3 0.4 0.1
v 0.3 0.4 0
v 0.3 0.4 -0.2
v 0.3 0.5 0.7
v 0.3 0.5 0.6
v 0.3 0.5 0.2
v 0.3 0.5 0
v 0.3 0.5 -0.6
v 0.3 0.5 -0.7
v -0.3 0.1 0.7
v -0.3 0.5 0.7
v -0.2 0 0.7
v -0.2 0.1 0.7
v -0.2 0.5 0.7
v -0.2 0.6 0.7
v 0.2 0 0.7
v 0.2 0.1 0.7
v 0.2 0.5 0.7
v 0.2 0.6 0.7
v 0.3 0.1 0.7
v 0.3 0.5 0.7
v -0.3 0.1 -0.7
v -0.3 0.5 -0.7
v -0.2 0 -0.7
v -0.2 0.1 -0.7
v -0.2 0.5 -0.7
v -0.2 0.6 -0.7
v -0.1 0.1 -0.7
v -0.1 0.3 -0.7
v 0.1 0.1 -0.7
v 0.1 0.3 -0.7
v 0.2 0 -0.7
v 0.2 0.1 -0.7
v 0.2 0.5 -0.7
v 0.2 0.6 -0.7
v 0.3 0.1 -0.7
v 0.3 0.5 -0.7
v -0.2 0 0.7
v 0.2 0 0.7
v -0.2 0 0.6
v 0.2 0 0.6
v -0.2 0 0.1
v -0.1 0 0.1
v 0.1 0 0.1
v 0.2 0 0.1
v -0.2 0 -0.1
v -0.1 0 -0.1
v 0.1 0 -0.3
v 0.2 0 -0.3
v -0.2 0 -0.6
v 0.2 0 -0.6
v -0.2 0 -0.7
v 0.2 0 -0.7
v -0.3 0.1 0.7
v -0.2 0.1 0.7
v 0.2 0.1 0.7
v 0.3 0.1 0.7
v -0.3 0.1 0.6
v -0.2 0.1 0.6
v 0.2 0.1 0.6
v 0.3 0.1 0.6
v -0.3 0.1 0.1
v -0.2 0.1 0.1
v 0.2 0.1 0.1
v -0.3 0.1 0
v -0.2 0.1 0
v 0.2 0.1 0
v 0.3 0.1 0
v -0.2 0.1 -0.1
v 0.2 0.1 -0.1
v 0.3 0.1 -0.1
v 0.2 0.1 -0.3
v -0.3 0.1 -0.6
v -0.2 0.1 -0.6
v 0.2 0.1 -0.6
v 0.3 0.1 -0.6
v -0.3 0.1 -0.7
v -0.2 0.1 -0.7
v 0.2 0.1 -0.7
v 0.3 0.1 -0.7
v -0.3 0.5 0.7
v -0.2 0.5 0.7
v 0.2 0.5 0.7
v 0.3 0.5 0.7
v -0.3 0.5 0.6
v -0.2 0.5 0.6
v 0.2 0.5 0.6
v 0.3 0.5 0.6
v 0.2 0.5 0.2
v 0.3 0.5 0.2
v -0.2 0.5 0.1
v 0.2 0.5 0.1
v -0.3 0.5 0
v -0.2 0.5 0
v 0.2 0.5 0
v 0.3 0.5 0
v -0.2 0.5 -0.1
v -0.3 0.5 -0.2
v -0.2 0.5 -0.2
v 0.2 0.5 -0.3
v -0.3 0.5 -0.6
v -0.2 0.5 -0.6
v 0.2 0.5 -0.6
v 0.3 0.5 -0.6
v -0.3 0.5 -0.7
v -0.2 0.5 -0.7
v 0.2 0.5 -0.7
v 0.3 0.5 -0.7
v -0.2 0.6 0.7
v 0.2 0.6 0.7
v -0.2 0.6 0.6
v 0.2 0.6 0.6
v -0.1 0.6 0.2
v 0.1 0.6 0.2
v -0.2 0.6 0.1
v -0.1 0.6 0.1
v 2.98023e-08 0.6 0.1
v 0.1 0.6 0.1
v 0.2 0.6 0.1
v 2.98023e-08 0.6 0
v 0.1 0.6 0
v -0.2 0.6 -0.1
v -0.1 0.6 -0.1
v 2.98023e-08 0.6 -0.1
v 0.1 0.6 -0.1
v -0.1 0.6 -0.3
v 2.98023e-08 0.6 -0.3
v 0.1 0.6 -0.3
v 0.2 0.6 -0.3
v -0.2 0.6 -0.6
v 0.2 0.6 -0.6
v -0.2 0.6 -0.7
v 0.2 0.6 -0.7

# faces
f 7/1/1 3/1/1 2/1/1
f 8/3/1 4/3/1 3/3/1
f 8/1/1 3/1/1 7/1/1
f 9/1/1 7/1/1 2/1/1
f 9/3/1 8/3/1 7/3/1
f 10/3/1 4/3/1 8/3/1
f 10/3/1 8/3/1 9/3/1
f 11/1/1 5/1/1 4/1/1
f 11/3/1 4/3/1 10/3/1
f 12/1/1 5/1/1 11/1/1
f 13/1/1 10/1/1 9/1/1
f 13/3/1 11/3/1 10/3/1
f 13/3/1 12/3/1 11/3/1
f 14/3/1 12/3/1 13/3/1
f 15/1/1 5/1/1 12/1/1
f 15/3/1 12/3/1 14/3/1
f 16/1/1 5/1/1 15/1/1
f 17/2/1 2/2/1 1/2/1
f 18/1/1 9/1/1 2/1/1
f 18/2/1 2/2/1 17/2/1
f 18/1/1 14/1/1 13/1/1
f 18/1/1 13/1/1 9/1/1
f 19/3/1 16/3/1 15/3/1
f 19/1/1 14/1/1 18/1/1
f 19/3/1 15/3/1 14/3/1
f 20/1/1 5/1/1 16/1/1
f 20/3/1 16/3/1 19/3/1
f 21/2/1 6/2/1 5/2/1
f 21/1/1 5/1/1 20/1/1
f 22/2/1 6/2/1 21/2/1
f 29/2/1 24/2/1 23/2/1
f 30/1/1 25/1/1 24/1/1
f 30/2/1 24/2/1 29/2/1
f 31/3/1 26/3/1 25/3/1
f 31/1/1 25/1/1 30/1/1
f 32/3/1 26/3/1 31/3/1
f 33/1/1 27/1/1 26/1/1
f 33/3/1 26/3/1 32/3/1
f 34/2/1 28/2/1 27/2/1
f 34/1/1 27/1/1 33/1/1
f 35/2/1 28/2/1 34/2/1
f 44/2/1 37/2/1 36/2/1
f 45/1/1 38/1/1 37/1/1
f 45/2/1 37/2/1 44/2/1
f 46/3/1 39/3/1 38/3/1
f 46/1/1 38/1/1 45/1/1
f 46/3/1 40/3/1 39/3/1
f 47/1/1 42/1/1 41/1/1
f 47/3/1 40/3/1 46/3/1
f 47/1/1 41/1/1 40/1/1
f 48/2/1 43/2/1 42/2/1
f 48/1/1 42/1/1 47/1/1
f 49/2/1 43/2/1 48/2/1
f 50/2/2 51/2/2 56/2/2
f 51/1/2 52/1/2 57/1/2
f 56/2/2 51/2/2 57/2/2
f 52/3/2 53/3/2 58/3/2
f 57/1/2 52/1/2 58/1/2
f 58/3/2 53/3/2 59/3/2
f 59/3/2 53/3/2 60/3/2
f 53/1/2 54/1/2 61/1/2
f 60/3/2 53/3/2 61/3/2
f 54/2/2 55/2/2 62/2/2
f 61/1/2 54/1/2 62/1/2
f 62/2/2 55/2/2 63/2/2
f 64/2/2 65/2/2 72/2/2
f 65/1/2 66/1/2 73/1/2
f 72/2/2 65/2/2 73/2/2
f 66/1/2 67/1/2 73/1/2
f 67/3/2 68/3/2 74/3/2
f 73/1/2 67/1/2 74/1/2
f 68/3/2 69/3/2 74/3/2
f 69/1/2 70/1/2 75/1/2
f 74/3/2 69/3/2 75/3/2
f 70/2/2 71/2/2 76/2/2
f 75/1/2 70/1/2 76/1/2
f 76/2/2 71/2/2 77/2/2
f 79/1/2 80/1/2 84/1/2
f 80/3/2 81/3/2 85/3/2
f 84/1/2 80/1/2 85/1/2
f 81/1/2 82/1/2 86/1/2
f 85/3/2 81/3/2 86/3/2
f 86/1/2 82/1/2 87/1/2
f 79/1/2 84/1/2 88/1/2
f 84/3/2 85/3/2 89/3/2
f 88/1/2 84/1/2 89/1/2
f 85/3/2 86/3/2 89/3/2
f 86/3/2 87/3/2 89/3/2
f 89/3/2 87/3/2 90/3/2
f 87/1/2 82/1/2 91/1/2
f 90/3/2 87/3/2 91/3/2
f 78/2/2 79/2/2 92/2/2
f 79/1/2 88/1/2 93/1/2
f 92/2/2 79/2/2 93/2/2
f 89/3/2 90/3/2 94/3/2
f 93/1/2 88/1/2 94/1/2
f 88/3/2 89/3/2 94/3/2
f 90/1/2 91/1/2 95/1/2
f 94/3/2 90/3/2 95/3/2
f 91/1/2 82/1/2 96/1/2
f 95/1/2 91/1/2 96/1/2
f 82/2/2 83/2/2 96/2/2
f 96/2/2 83/2/2 97/2/2
f 101/2/3 99/2/3 98/2/3
f 102/2/3 99/2/3 101/2/3
f 104/2/3 101/2/3 100/2/3
f 104/2/3 103/2/3 102/2/3
f 104/2/3 102/2/3 101/2/3
f 105/2/3 103/2/3 104/2/3
f 106/2/3 103/2/3 105/2/3
f 107/2/3 103/2/3 106/2/3
f 108/2/3 106/2/3 105/2/3
f 109/2/3 106/2/3 108/2/3
f 110/2/4 111/2/4 113/2/4
f 113/2/4 111/2/4 114/2/4
f 112/2/4 113/2/4 116/2/4
f 114/2/4 115/2/4 116/2/4
f 113/2/4 114/2/4 116/2/4
f 116/2/4 115/2/4 117/2/4
f 112/2/4 116/2/4 118/2/4
f 116/4/4 117/4/4 118/4/4
f 117/2/4 115/2/4 119/2/4
f 118/4/4 117/4/4 119/4/4
f 112/2/4 118/2/4 120/2/4
f 118/2/4 119/2/4 120/2/4
f 120/2/4 119/2/4 121/2/4
f 119/2/4 115/2/4 122/2/4
f 121/2/4 119/2/4 122/2/4
f 122/2/4 115/2/4 123/2/4
f 121/2/4 122/2/4 124/2/4
f 124/2/4 122/2/4 125/2/4
f 128/2/5 127/2/5 126/2/5
f 129/2/5 127/2/5 128/2/5
f 130/1/5 129/1/5 128/1/5
f 131/1/5 129/1/5 130/1/5
f 132/1/5 129/1/5 131/1/5
f 133/1/5 129/1/5 132/1/5
f 134/3/5 131/3/5 130/3/5
f 135/1/5 132/1/5 131/1/5
f 135/3/5 131/3/5 134/3/5
f 136/3/5 133/3/5 132/3/5
f 136/1/5 132/1/5 135/1/5
f 136/1/5 135/1/5 134/1/5
f 137/3/5 133/3/5 136/3/5
f 138/1/5 136/1/5 134/1/5
f 138/1/5 137/1/5 136/1/5
f 139/1/5 137/1/5 138/1/5
f 140/2/5 139/2/5 138/2/5
f 141/2/5 139/2/5 140/2/5
f 146/2/5 143/2/5 142/2/5
f 147/2/5 143/2/5 146/2/5
f 148/2/5 145/2/5 144/2/5
f 149/2/5 145/2/5 148/2/5
f 150/1/5 147/1/5 146/1/5
f 151/1/5 147/1/5 150/1/5
f 152/1/5 149/1/5 148/1/5
f 153/3/5 151/3/5 150/3/5
f 154/3/5 151/3/5 153/3/5
f 155/1/5 149/1/5 152/1/5
f 156/1/5 149/1/5 155/1/5
f 157/1/5 154/1/5 153/1/5
f 158/3/5 156/3/5 155/3/5
f 159/3/5 156/3/5 158/3/5
f 160/1/5 159/1/5 158/1/5
f 161/1/5 157/1/5 153/1/5
f 162/1/5 157/1/5 161/1/5
f 163/1/5 159/1/5 160/1/5
f 164/1/5 159/1/5 163/1/5
f 165/2/5 162/2/5 161/2/5
f 166/2/5 162/2/5 165/2/5
f 167/2/5 164/2/5 163/2/5
f 168/2/5 164/2/5 167/2/5
f 169/2/6 170/2/6 173/2/6
f 173/2/6 170/2/6 174/2/6
f 171/2/6 172/2/6 175/2/6
f 175/2/6 172/2/6 176/2/6
f 175/1/6 176/1/6 177/1/6
f 177/1/6 176/1/6 178/1/6
f 173/1/6 174/1/6 179/1/6
f 177/3/6 178/3/6 180/3/6
f 173/1/6 179/1/6 181/1/6
f 181/1/6 179/1/6 182/1/6
f 180/3/6 178/3/6 183/3/6
f 183/3/6 178/3/6 184/3/6
f 181/3/6 182/3/6 185/3/6
f 181/3/6 185/3/6 186/3/6
f 186/3/6 185/3/6 187/3/6
f 183/1/6 184/1/6 188/1/6
f 186/1/6 187/1/6 189/1/6
f 189/1/6 187/1/6 190/1/6
f 188/1/6 184/1/6 191/1/6
f 191/1/6 184/1/6 192/1/6
f 189/2/6 190/2/6 193/2/6
f 193/2/6 190/2/6 194/2/6
f 191/2/6 192/2/6 195/2/6
f 195/2/6 192/2/6 196/2/6
f 197/2/6 198/2/6 199/2/6
f 199/2/6 198/2/6 200/2/6
f 199/1/6 200/1/6 201/1/6
f 201/1/6 200/1/6 202/1/6
f 199/1/6 201/1/6 203/1/6
f 201/3/6 202/3/6 204/3/6
f 203/1/6 201/1/6 204/1/6
f 204/3/6 202/3/6 205/3/6
f 202/1/6 200/1/6 206/1/6
f 205/3/6 202/3/6 206/3/6
f 206/1/6 200/1/6 207/1/6
f 204/3/6 205/3/6 208/3/6
f 203/3/6 204/3/6 208/3/6
f 205/1/6 206/1/6 208/1/6
f 206/3/6 207/3/6 209/3/6
f 208/1/6 206/1/6 209/1/6
f 203/3/6 208/3/6 210/3/6
f 208/3/6 209/3/6 210/3/6
f 210/3/6 209/3/6 211/3/6
f 211/3/6 209/3/6 212/3/6
f 209/3/6 207/3/6 213/3/6
f 212/3/6 209/3/6 213/3/6
f 211/3/6 212/3/6 214/3/6
f 210/1/6 211/1/6 214/1/6
f 212/1/6 213/1/6 215/1/6
f 214/3/6 212/3/6 215/3/6
f 213/3/6 207/3/6 216/3/6
f 215/1/6 213/1/6 216/1/6
f 216/3/6 207/3/6 217/3/6
f 214/1/6 215/1/6 218/1/6
f 210/1/6 214/1/6 218/1/6
f 216/1/6 217/1/6 218/1/6
f 215/1/6 216/1/6 218/1/6
f 218/1/6 217/1/6 219/1/6
f 218/2/6 219/2/6 220/2/6
f 220/2/6 219/2/6 221/2/6
