# MagicaVoxel @ Ephtracy

# group
o 

# material
mtllib book_2.mtl
usemtl palette

# normals
vn -1 0 0
vn 1 0 0
vn 0 0 1
vn 0 0 -1
vn 0 -1 0
vn 0 1 0

# texcoords
vt 0.544922 0.5
vt 0.736328 0.5
vt 0.916016 0.5

# verts
v -0.8 0 0.4
v -0.8 0 -0.6
v -0.8 0.1 0.4
v -0.8 0.1 -0.6
v 0.8 0 0.4
v 0.8 0 -0.6
v 0.8 0.1 0.4
v 0.8 0.1 -0.6
v -0.8 0 0.4
v -0.8 0.1 0.4
v 0.8 0 0.4
v 0.8 0.1 0.4
v -0.8 0 -0.6
v -0.8 0.1 -0.6
v 0.8 0 -0.6
v 0.8 0.1 -0.6
v -0.8 0 0.4
v 0.8 0 0.4
v -0.7 0 0.3
v 0.7 0 0.3
v 0.1 0 0.2
v 0.2 0 0.2
v -0.4 0 0.1
v -0.3 0 0.1
v 5.96046e-08 0 0.1
v 0.1 0 0.1
v 0.5 0 0.1
v 0.6 0 0.1
v -0.3 0 0
v 5.96046e-08 0 0
v 0.4 0 0
v 0.5 0 0
v -0.6 0 -0.1
v -0.4 0 -0.1
v 0.1 0 -0.1
v 0.2 0 -0.1
v -0.6 0 -0.2
v -0.5 0 -0.2
v -0.5 0 -0.3
v 0.1 0 -0.3
v 0.5 0 -0.3
v 0.6 0 -0.3
v 0.4 0 -0.4
v 0.5 0 -0.4
v -0.7 0 -0.5
v 0.7 0 -0.5
v -0.8 0 -0.6
v 0.8 0 -0.6
v -0.8 0.1 0.4
v 0.8 0.1 0.4
v -0.7 0.1 0.3
v 0.7 0.1 0.3
v 0.1 0.1 0.2
v 0.2 0.1 0.2
v -0.4 0.1 0.1
v -0.3 0.1 0.1
v 5.96046e-08 0.1 0.1
v 0.1 0.1 0.1
v 0.5 0.1 0.1
v 0.6 0.1 0.1
v -0.3 0.1 0
v 5.96046e-08 0.1 0
v 0.4 0.1 0
v 0.5 0.1 0
v -0.6 0.1 -0.1
v -0.4 0.1 -0.1
v 0.1 0.1 -0.1
v 0.2 0.1 -0.1
v -0.6 0.1 -0.2
v -0.5 0.1 -0.2
v -0.5 0.1 -0.3
v 0.1 0.1 -0.3
v 0.5 0.1 -0.3
v 0.6 0.1 -0.3
v 0.4 0.1 -0.4
v 0.5 0.1 -0.4
v -0.7 0.1 -0.5
v 0.7 0.1 -0.5
v -0.8 0.1 -0.6
v 0.8 0.1 -0.6

# faces
f 3/2/1 2/2/1 1/2/1
f 4/2/1 2/2/1 3/2/1
f 5/2/2 6/2/2 7/2/2
f 7/2/2 6/2/2 8/2/2
f 11/2/3 10/2/3 9/2/3
f 12/2/3 10/2/3 11/2/3
f 13/2/4 14/2/4 15/2/4
f 15/2/4 14/2/4 16/2/4
f 19/2/5 18/2/5 17/2/5
f 20/2/5 18/2/5 19/2/5
f 21/3/5 20/3/5 19/3/5
f 22/3/5 20/3/5 21/3/5
f 23/3/5 21/3/5 19/3/5
f 24/3/5 21/3/5 23/3/5
f 25/3/5 21/3/5 24/3/5
f 26/1/5 22/1/5 21/1/5
f 26/3/5 21/3/5 25/3/5
f 27/3/5 20/3/5 22/3/5
f 28/3/5 20/3/5 27/3/5
f 29/3/5 25/3/5 24/3/5
f 29/1/5 24/1/5 23/1/5
f 30/1/5 26/1/5 25/1/5
f 30/3/5 25/3/5 29/3/5
f 31/3/5 27/3/5 22/3/5
f 32/2/5 28/2/5 27/2/5
f 32/3/5 27/3/5 31/3/5
f 33/3/5 23/3/5 19/3/5
f 34/1/5 29/1/5 23/1/5
f 34/3/5 23/3/5 33/3/5
f 34/1/5 30/1/5 29/1/5
f 35/1/5 22/1/5 26/1/5
f 35/1/5 30/1/5 34/1/5
f 35/1/5 26/1/5 30/1/5
f 36/3/5 31/3/5 22/3/5
f 36/1/5 22/1/5 35/1/5
f 37/1/5 34/1/5 33/1/5
f 37/1/5 35/1/5 34/1/5
f 37/3/5 33/3/5 19/3/5
f 38/1/5 35/1/5 37/1/5
f 39/3/5 38/3/5 37/3/5
f 39/1/5 35/1/5 38/1/5
f 40/3/5 36/3/5 35/3/5
f 40/1/5 35/1/5 39/1/5
f 41/2/5 28/2/5 32/2/5
f 41/2/5 32/2/5 31/2/5
f 42/3/5 20/3/5 28/3/5
f 42/2/5 28/2/5 41/2/5
f 43/3/5 31/3/5 36/3/5
f 43/2/5 41/2/5 31/2/5
f 43/3/5 36/3/5 40/3/5
f 43/3/5 40/3/5 39/3/5
f 44/3/5 42/3/5 41/3/5
f 44/2/5 41/2/5 43/2/5
f 45/2/5 19/2/5 17/2/5
f 45/3/5 43/3/5 39/3/5
f 45/3/5 44/3/5 43/3/5
f 45/3/5 39/3/5 37/3/5
f 45/3/5 37/3/5 19/3/5
f 46/3/5 42/3/5 44/3/5
f 46/3/5 44/3/5 45/3/5
f 46/2/5 18/2/5 20/2/5
f 46/3/5 20/3/5 42/3/5
f 47/2/5 45/2/5 17/2/5
f 47/2/5 46/2/5 45/2/5
f 48/2/5 18/2/5 46/2/5
f 48/2/5 46/2/5 47/2/5
f 49/2/6 50/2/6 51/2/6
f 51/2/6 50/2/6 52/2/6
f 51/3/6 52/3/6 53/3/6
f 53/3/6 52/3/6 54/3/6
f 51/3/6 53/3/6 55/3/6
f 55/3/6 53/3/6 56/3/6
f 56/3/6 53/3/6 57/3/6
f 53/1/6 54/1/6 58/1/6
f 57/3/6 53/3/6 58/3/6
f 54/3/6 52/3/6 59/3/6
f 59/3/6 52/3/6 60/3/6
f 56/3/6 57/3/6 61/3/6
f 55/1/6 56/1/6 61/1/6
f 57/1/6 58/1/6 62/1/6
f 61/3/6 57/3/6 62/3/6
f 54/3/6 59/3/6 63/3/6
f 59/2/6 60/2/6 64/2/6
f 63/3/6 59/3/6 64/3/6
f 51/3/6 55/3/6 65/3/6
f 55/1/6 61/1/6 66/1/6
f 65/3/6 55/3/6 66/3/6
f 61/1/6 62/1/6 66/1/6
f 58/1/6 54/1/6 67/1/6
f 66/1/6 62/1/6 67/1/6
f 62/1/6 58/1/6 67/1/6
f 54/3/6 63/3/6 68/3/6
f 67/1/6 54/1/6 68/1/6
f 65/1/6 66/1/6 69/1/6
f 66/1/6 67/1/6 69/1/6
f 51/3/6 65/3/6 69/3/6
f 69/1/6 67/1/6 70/1/6
f 69/3/6 70/3/6 71/3/6
f 70/1/6 67/1/6 71/1/6
f 67/3/6 68/3/6 72/3/6
f 71/1/6 67/1/6 72/1/6
f 64/2/6 60/2/6 73/2/6
f 63/2/6 64/2/6 73/2/6
f 60/3/6 52/3/6 74/3/6
f 73/2/6 60/2/6 74/2/6
f 68/3/6 63/3/6 75/3/6
f 63/2/6 73/2/6 75/2/6
f 72/3/6 68/3/6 75/3/6
f 71/3/6 72/3/6 75/3/6
f 73/3/6 74/3/6 76/3/6
f 75/2/6 73/2/6 76/2/6
f 49/2/6 51/2/6 77/2/6
f 71/3/6 75/3/6 77/3/6
f 75/3/6 76/3/6 77/3/6
f 69/3/6 71/3/6 77/3/6
f 51/3/6 69/3/6 77/3/6
f 76/3/6 74/3/6 78/3/6
f 77/3/6 76/3/6 78/3/6
f 52/2/6 50/2/6 78/2/6
f 74/3/6 52/3/6 78/3/6
f 49/2/6 77/2/6 79/2/6
f 77/2/6 78/2/6 79/2/6
f 78/2/6 50/2/6 80/2/6
f 79/2/6 78/2/6 80/2/6
