# MagicaVoxel @ Ephtracy

# group
o 

# material
mtllib flower.mtl
usemtl palette

# normals
vn -1 0 0
vn 1 0 0
vn 0 0 1
vn 0 0 -1
vn 0 -1 0
vn 0 1 0

# texcoords
vt 0.0136719 0.5
vt 0.365234 0.5
vt 0.369141 0.5
vt 0.888672 0.5
vt 0.892578 0.5
vt 0.958984 0.5

# verts
v -0.4 0.8 -2.98023e-08
v -0.4 0.8 -0.1
v -0.4 0.9 -2.98023e-08
v -0.4 0.9 -0.1
v -0.4 0.9 -0.2
v -0.4 1 -0.1
v -0.4 1 -0.2
v -0.3 0.1 0.1
v -0.3 0.1 -0.2
v -0.3 0.4 0.1
v -0.3 0.4 -0.2
v -0.3 0.8 0.1
v -0.3 0.8 -2.98023e-08
v -0.3 0.9 0.1
v -0.3 0.9 -2.98023e-08
v -0.3 0.9 -0.1
v -0.3 1 -2.98023e-08
v -0.3 1 -0.1
v -0.3 1 -0.2
v -0.3 1.1 -0.1
v -0.3 1.1 -0.2
v -0.2 0 0.1
v -0.2 0 -0.2
v -0.2 0.1 0.2
v -0.2 0.1 0.1
v -0.2 0.1 -0.2
v -0.2 0.1 -0.3
v -0.2 0.4 0.2
v -0.2 0.4 0.1
v -0.2 0.4 -0.2
v -0.2 0.4 -0.3
v -0.2 0.9 0.1
v -0.2 0.9 -2.98023e-08
v -0.2 1 0.1
v -0.2 1 -2.98023e-08
v -0.2 1 -0.1
v -0.2 1.1 -2.98023e-08
v -0.2 1.1 -0.1
v -0.1 0 0.2
v -0.1 0 0.1
v -0.1 0 -0.2
v -0.1 0 -0.3
v -0.1 0.1 0.3
v -0.1 0.1 0.2
v -0.1 0.1 0.1
v -0.1 0.1 -0.2
v -0.1 0.1 -0.3
v -0.1 0.1 -0.4
v -0.1 0.4 0.3
v -0.1 0.4 0.2
v -0.1 0.4 -0.3
v -0.1 0.4 -0.4
v -0.1 0.6 -2.98023e-08
v -0.1 0.6 -0.1
v -0.1 0.8 -2.98023e-08
v -0.1 0.8 -0.1
v 0 0.3 -2.98023e-08
v 0 0.3 -0.1
v 0 0.6 -2.98023e-08
v 0 0.6 -0.1
v 0.1 0.6 0.1
v 0.1 0.6 -2.98023e-08
v 0.1 0.7 0.1
v 0.1 0.7 -2.98023e-08
v 0.1 0.7 -0.1
v 0.1 0.8 -2.98023e-08
v 0.1 0.8 -0.1
v 0.2 0.3 0.2
v 0.2 0.3 0.1
v 0.2 0.3 -0.2
v 0.2 0.3 -0.3
v 0.2 0.4 0.2
v 0.2 0.4 0.1
v 0.2 0.4 -0.2
v 0.2 0.4 -0.3
v 0.2 0.5 0.1
v 0.2 0.5 -2.98023e-08
v 0.2 0.6 0.1
v 0.2 0.6 -2.98023e-08
v 0.2 0.6 -0.1
v 0.2 0.6 -0.2
v 0.2 0.7 -0.1
v 0.2 0.8 -0.1
v 0.2 0.8 -0.2
v 0.3 0.3 0.1
v 0.3 0.3 -0.2
v 0.3 0.4 0.1
v 0.3 0.4 -0.2
v -0.2 0.3 0.1
v -0.2 0.3 -0.2
v -0.2 0.4 0.1
v -0.2 0.4 -0.2
v -0.2 0.8 0.1
v -0.2 0.8 -2.98023e-08
v -0.2 0.9 0.1
v -0.2 0.9 -2.98023e-08
v -0.2 0.9 -0.1
v -0.2 0.9 -0.2
v -0.2 1.1 -0.1
v -0.2 1.1 -0.2
v -0.1 0.3 0.2
v -0.1 0.3 0.1
v -0.1 0.3 -0.2
v -0.1 0.3 -0.3
v -0.1 0.4 0.2
v -0.1 0.4 0.1
v -0.1 0.4 -0.2
v -0.1 0.4 -0.3
v -0.1 0.9 0.1
v -0.1 0.9 -2.98023e-08
v -0.1 0.9 -0.1
v -0.1 1 0.1
v -0.1 1 -2.98023e-08
v -0.1 1.1 -2.98023e-08
v -0.1 1.1 -0.1
v 0 0.7 -2.98023e-08
v 0 0.7 -0.1
v 0 0.9 -2.98023e-08
v 0 0.9 -0.1
v 0.1 0.3 -2.98023e-08
v 0.1 0.3 -0.1
v 0.1 0.5 -2.98023e-08
v 0.1 0.5 -0.1
v 0.2 0 0.2
v 0.2 0 0.1
v 0.2 0 -0.2
v 0.2 0 -0.3
v 0.2 0.1 0.3
v 0.2 0.1 0.2
v 0.2 0.1 0.1
v 0.2 0.1 -0.2
v 0.2 0.1 -0.3
v 0.2 0.1 -0.4
v 0.2 0.4 0.3
v 0.2 0.4 0.2
v 0.2 0.4 -0.3
v 0.2 0.4 -0.4
v 0.2 0.6 0.1
v 0.2 0.6 -2.98023e-08
v 0.2 0.7 0.1
v 0.2 0.7 -2.98023e-08
v 0.2 0.7 -0.1
v 0.2 0.8 -2.98023e-08
v 0.2 0.8 -0.1
v 0.3 0 0.1
v 0.3 0 -0.2
v 0.3 0.1 0.2
v 0.3 0.1 0.1
v 0.3 0.1 -0.2
v 0.3 0.1 -0.3
v 0.3 0.4 0.2
v 0.3 0.4 0.1
v 0.3 0.4 -0.2
v 0.3 0.4 -0.3
v 0.3 0.5 0.1
v 0.3 0.5 -2.98023e-08
v 0.3 0.6 0.1
v 0.3 0.6 -2.98023e-08
v 0.3 0.6 -0.1
v 0.3 0.7 -2.98023e-08
v 0.3 0.7 -0.1
v 0.3 0.7 -0.2
v 0.3 0.8 -0.1
v 0.3 0.8 -0.2
v 0.4 0.1 0.1
v 0.4 0.1 -0.2
v 0.4 0.4 0.1
v 0.4 0.4 -0.2
v 0.4 0.5 -2.98023e-08
v 0.4 0.5 -0.1
v 0.4 0.6 -2.98023e-08
v 0.4 0.6 -0.1
v 0.4 0.6 -0.2
v 0.4 0.7 -0.1
v 0.4 0.7 -0.2
v -0.1 0.1 0.3
v -0.1 0.4 0.3
v 0.2 0.1 0.3
v 0.2 0.4 0.3
v -0.2 0.1 0.2
v -0.2 0.4 0.2
v -0.1 0 0.2
v -0.1 0.1 0.2
v -0.1 0.4 0.2
v 0.2 0 0.2
v 0.2 0.1 0.2
v 0.2 0.4 0.2
v 0.3 0.1 0.2
v 0.3 0.4 0.2
v -0.3 0.1 0.1
v -0.3 0.4 0.1
v -0.3 0.8 0.1
v -0.3 0.9 0.1
v -0.2 0 0.1
v -0.2 0.1 0.1
v -0.2 0.4 0.1
v -0.2 0.8 0.1
v -0.2 0.9 0.1
v -0.2 1 0.1
v -0.1 0 0.1
v -0.1 0.1 0.1
v -0.1 0.9 0.1
v -0.1 1 0.1
v 0.1 0.6 0.1
v 0.1 0.7 0.1
v 0.2 0 0.1
v 0.2 0.1 0.1
v 0.2 0.5 0.1
v 0.2 0.6 0.1
v 0.2 0.7 0.1
v 0.3 0 0.1
v 0.3 0.1 0.1
v 0.3 0.4 0.1
v 0.3 0.5 0.1
v 0.3 0.6 0.1
v 0.4 0.1 0.1
v 0.4 0.4 0.1
v -0.4 0.8 -2.98023e-08
v -0.4 0.9 -2.98023e-08
v -0.3 0.8 -2.98023e-08
v -0.3 0.9 -2.98023e-08
v -0.3 1 -2.98023e-08
v -0.2 0.8 -2.98023e-08
v -0.2 0.9 -2.98023e-08
v -0.2 1 -2.98023e-08
v -0.2 1.1 -2.98023e-08
v -0.1 0.6 -2.98023e-08
v -0.1 0.8 -2.98023e-08
v -0.1 0.9 -2.98023e-08
v -0.1 1 -2.98023e-08
v -0.1 1.1 -2.98023e-08
v 0 0.3 -2.98023e-08
v 0 0.6 -2.98023e-08
v 0 0.7 -2.98023e-08
v 0 0.9 -2.98023e-08
v 0.1 0.3 -2.98023e-08
v 0.1 0.5 -2.98023e-08
v 0.1 0.6 -2.98023e-08
v 0.1 0.7 -2.98023e-08
v 0.1 0.8 -2.98023e-08
v 0.2 0.5 -2.98023e-08
v 0.2 0.6 -2.98023e-08
v 0.2 0.7 -2.98023e-08
v 0.2 0.8 -2.98023e-08
v 0.3 0.5 -2.98023e-08
v 0.3 0.6 -2.98023e-08
v 0.3 0.7 -2.98023e-08
v 0.4 0.5 -2.98023e-08
v 0.4 0.6 -2.98023e-08
v -0.4 0.9 -0.1
v -0.4 1 -0.1
v -0.3 0.9 -0.1
v -0.3 1 -0.1
v -0.3 1.1 -0.1
v -0.2 1 -0.1
v -0.2 1.1 -0.1
v 0.2 0.7 -0.1
v 0.2 0.8 -0.1
v 0.3 0.6 -0.1
v 0.3 0.7 -0.1
v 0.3 0.8 -0.1
v 0.4 0.6 -0.1
v 0.4 0.7 -0.1
v -0.2 0.3 -0.2
v -0.2 0.4 -0.2
v -0.1 0.3 -0.2
v -0.1 0.4 -0.2
v 0.2 0.3 -0.2
v 0.2 0.4 -0.2
v 0.3 0.3 -0.2
v 0.3 0.4 -0.2
v -0.1 0.3 -0.3
v -0.1 0.4 -0.3
v 0.2 0.3 -0.3
v 0.2 0.4 -0.3
v -0.1 0.3 0.2
v -0.1 0.4 0.2
v 0.2 0.3 0.2
v 0.2 0.4 0.2
v -0.2 0.3 0.1
v -0.2 0.4 0.1
v -0.1 0.3 0.1
v -0.1 0.4 0.1
v 0.2 0.3 0.1
v 0.2 0.4 0.1
v 0.3 0.3 0.1
v 0.3 0.4 0.1
v -0.4 0.8 -0.1
v -0.4 0.9 -0.1
v -0.2 0.8 -0.1
v -0.2 0.9 -0.1
v -0.2 1.1 -0.1
v -0.1 0.6 -0.1
v -0.1 0.8 -0.1
v -0.1 0.9 -0.1
v -0.1 1.1 -0.1
v 0 0.3 -0.1
v 0 0.6 -0.1
v 0 0.7 -0.1
v 0 0.9 -0.1
v 0.1 0.3 -0.1
v 0.1 0.5 -0.1
v 0.1 0.6 -0.1
v 0.1 0.7 -0.1
v 0.1 0.8 -0.1
v 0.2 0.5 -0.1
v 0.2 0.6 -0.1
v 0.2 0.7 -0.1
v 0.2 0.8 -0.1
v 0.4 0.5 -0.1
v 0.4 0.6 -0.1
v -0.4 0.9 -0.2
v -0.4 1 -0.2
v -0.3 0.1 -0.2
v -0.3 0.4 -0.2
v -0.3 1 -0.2
v -0.3 1.1 -0.2
v -0.2 0 -0.2
v -0.2 0.1 -0.2
v -0.2 0.4 -0.2
v -0.2 0.9 -0.2
v -0.2 1.1 -0.2
v -0.1 0 -0.2
v -0.1 0.1 -0.2
v 0.2 0 -0.2
v 0.2 0.1 -0.2
v 0.2 0.6 -0.2
v 0.2 0.8 -0.2
v 0.3 0 -0.2
v 0.3 0.1 -0.2
v 0.3 0.4 -0.2
v 0.3 0.7 -0.2
v 0.3 0.8 -0.2
v 0.4 0.1 -0.2
v 0.4 0.4 -0.2
v 0.4 0.6 -0.2
v 0.4 0.7 -0.2
v -0.2 0.1 -0.3
v -0.2 0.4 -0.3
v -0.1 0 -0.3
v -0.1 0.1 -0.3
v -0.1 0.4 -0.3
v 0.2 0 -0.3
v 0.2 0.1 -0.3
v 0.2 0.4 -0.3
v 0.3 0.1 -0.3
v 0.3 0.4 -0.3
v -0.1 0.1 -0.4
v -0.1 0.4 -0.4
v 0.2 0.1 -0.4
v 0.2 0.4 -0.4
v -0.1 0 0.2
v 0.2 0 0.2
v -0.2 0 0.1
v -0.1 0 0.1
v 0.2 0 0.1
v 0.3 0 0.1
v -0.2 0 -0.2
v -0.1 0 -0.2
v 0.2 0 -0.2
v 0.3 0 -0.2
v -0.1 0 -0.3
v 0.2 0 -0.3
v -0.1 0.1 0.3
v 0.2 0.1 0.3
v -0.2 0.1 0.2
v -0.1 0.1 0.2
v 0.2 0.1 0.2
v 0.3 0.1 0.2
v -0.3 0.1 0.1
v -0.2 0.1 0.1
v -0.1 0.1 0.1
v 0.2 0.1 0.1
v 0.3 0.1 0.1
v 0.4 0.1 0.1
v -0.3 0.1 -0.2
v -0.2 0.1 -0.2
v -0.1 0.1 -0.2
v 0.2 0.1 -0.2
v 0.3 0.1 -0.2
v 0.4 0.1 -0.2
v -0.2 0.1 -0.3
v -0.1 0.1 -0.3
v 0.2 0.1 -0.3
v 0.3 0.1 -0.3
v -0.1 0.1 -0.4
v 0.2 0.1 -0.4
v 0.2 0.5 0.1
v 0.3 0.5 0.1
v 0.1 0.5 -2.98023e-08
v 0.2 0.5 -2.98023e-08
v 0.3 0.5 -2.98023e-08
v 0.4 0.5 -2.98023e-08
v 0.1 0.5 -0.1
v 0.2 0.5 -0.1
v 0.4 0.5 -0.1
v 0.1 0.6 0.1
v 0.2 0.6 0.1
v -0.1 0.6 -2.98023e-08
v 0 0.6 -2.98023e-08
v 0.1 0.6 -2.98023e-08
v 0.2 0.6 -2.98023e-08
v -0.1 0.6 -0.1
v 0 0.6 -0.1
v 0.2 0.6 -0.1
v 0.4 0.6 -0.1
v 0.2 0.6 -0.2
v 0.4 0.6 -0.2
v -0.3 0.8 0.1
v -0.2 0.8 0.1
v -0.4 0.8 -2.98023e-08
v -0.3 0.8 -2.98023e-08
v -0.2 0.8 -2.98023e-08
v -0.1 0.8 -2.98023e-08
v -0.4 0.8 -0.1
v -0.2 0.8 -0.1
v -0.1 0.8 -0.1
v -0.2 0.9 0.1
v -0.1 0.9 0.1
v -0.2 0.9 -2.98023e-08
v -0.1 0.9 -2.98023e-08
v -0.4 0.9 -0.1
v -0.2 0.9 -0.1
v -0.4 0.9 -0.2
v -0.2 0.9 -0.2
v -0.1 0.3 0.2
v 0.2 0.3 0.2
v -0.2 0.3 0.1
v -0.1 0.3 0.1
v 0.2 0.3 0.1
v 0.3 0.3 0.1
v 0 0.3 -2.98023e-08
v 0.1 0.3 -2.98023e-08
v 0 0.3 -0.1
v 0.1 0.3 -0.1
v -0.2 0.3 -0.2
v -0.1 0.3 -0.2
v 0.2 0.3 -0.2
v 0.3 0.3 -0.2
v -0.1 0.3 -0.3
v 0.2 0.3 -0.3
v -0.1 0.4 0.3
v 0.2 0.4 0.3
v -0.2 0.4 0.2
v -0.1 0.4 0.2
v 0.2 0.4 0.2
v 0.3 0.4 0.2
v -0.3 0.4 0.1
v -0.2 0.4 0.1
v -0.1 0.4 0.1
v 0.2 0.4 0.1
v 0.3 0.4 0.1
v 0.4 0.4 0.1
v -0.3 0.4 -0.2
v -0.2 0.4 -0.2
v -0.1 0.4 -0.2
v 0.2 0.4 -0.2
v 0.3 0.4 -0.2
v 0.4 0.4 -0.2
v -0.2 0.4 -0.3
v -0.1 0.4 -0.3
v 0.2 0.4 -0.3
v 0.3 0.4 -0.3
v -0.1 0.4 -0.4
v 0.2 0.4 -0.4
v 0.2 0.6 0.1
v 0.3 0.6 0.1
v 0.2 0.6 -2.98023e-08
v 0.3 0.6 -2.98023e-08
v 0.4 0.6 -2.98023e-08
v 0.3 0.6 -0.1
v 0.4 0.6 -0.1
v 0.1 0.7 0.1
v 0.2 0.7 0.1
v 0 0.7 -2.98023e-08
v 0.1 0.7 -2.98023e-08
v 0.2 0.7 -2.98023e-08
v 0.3 0.7 -2.98023e-08
v 0 0.7 -0.1
v 0.1 0.7 -0.1
v 0.2 0.7 -0.1
v 0.3 0.7 -0.1
v 0.4 0.7 -0.1
v 0.3 0.7 -0.2
v 0.4 0.7 -0.2
v 0.1 0.8 -2.98023e-08
v 0.2 0.8 -2.98023e-08
v 0.1 0.8 -0.1
v 0.2 0.8 -0.1
v 0.3 0.8 -0.1
v 0.2 0.8 -0.2
v 0.3 0.8 -0.2
v -0.3 0.9 0.1
v -0.2 0.9 0.1
v -0.4 0.9 -2.98023e-08
v -0.3 0.9 -2.98023e-08
v -0.2 0.9 -2.98023e-08
v -0.1 0.9 -2.98023e-08
v 0 0.9 -2.98023e-08
v -0.4 0.9 -0.1
v -0.3 0.9 -0.1
v -0.1 0.9 -0.1
v 0 0.9 -0.1
v -0.2 1 0.1
v -0.1 1 0.1
v -0.3 1 -2.98023e-08
v -0.2 1 -2.98023e-08
v -0.1 1 -2.98023e-08
v -0.4 1 -0.1
v -0.3 1 -0.1
v -0.2 1 -0.1
v -0.4 1 -0.2
v -0.3 1 -0.2
v -0.2 1.1 -2.98023e-08
v -0.1 1.1 -2.98023e-08
v -0.3 1.1 -0.1
v -0.2 1.1 -0.1
v -0.1 1.1 -0.1
v -0.3 1.1 -0.2
v -0.2 1.1 -0.2

# faces
f 3/6/1 2/6/1 1/6/1
f 4/6/1 2/6/1 3/6/1
f 6/6/1 5/6/1 4/6/1
f 7/6/1 5/6/1 6/6/1
f 10/3/1 9/3/1 8/3/1
f 11/3/1 9/3/1 10/3/1
f 14/6/1 13/6/1 12/6/1
f 15/6/1 13/6/1 14/6/1
f 17/1/1 16/1/1 15/1/1
f 18/1/1 16/1/1 17/1/1
f 20/6/1 19/6/1 18/6/1
f 21/6/1 19/6/1 20/6/1
f 25/3/1 23/3/1 22/3/1
f 26/3/1 23/3/1 25/3/1
f 28/3/1 25/3/1 24/3/1
f 29/3/1 25/3/1 28/3/1
f 30/3/1 27/3/1 26/3/1
f 31/3/1 27/3/1 30/3/1
f 34/6/1 33/6/1 32/6/1
f 35/6/1 33/6/1 34/6/1
f 37/6/1 36/6/1 35/6/1
f 38/6/1 36/6/1 37/6/1
f 44/3/1 40/3/1 39/3/1
f 45/3/1 40/3/1 44/3/1
f 46/3/1 42/3/1 41/3/1
f 47/3/1 42/3/1 46/3/1
f 49/3/1 44/3/1 43/3/1
f 50/3/1 44/3/1 49/3/1
f 51/3/1 48/3/1 47/3/1
f 52/3/1 48/3/1 51/3/1
f 55/5/1 54/5/1 53/5/1
f 56/5/1 54/5/1 55/5/1
f 59/5/1 58/5/1 57/5/1
f 60/5/1 58/5/1 59/5/1
f 63/6/1 62/6/1 61/6/1
f 64/6/1 62/6/1 63/6/1
f 66/6/1 65/6/1 64/6/1
f 67/6/1 65/6/1 66/6/1
f 72/3/1 69/3/1 68/3/1
f 73/3/1 69/3/1 72/3/1
f 74/3/1 71/3/1 70/3/1
f 75/3/1 71/3/1 74/3/1
f 78/6/1 77/6/1 76/6/1
f 79/6/1 77/6/1 78/6/1
f 82/6/1 81/6/1 80/6/1
f 83/6/1 81/6/1 82/6/1
f 84/6/1 81/6/1 83/6/1
f 87/3/1 86/3/1 85/3/1
f 88/3/1 86/3/1 87/3/1
f 89/3/2 90/3/2 91/3/2
f 91/3/2 90/3/2 92/3/2
f 93/6/2 94/6/2 95/6/2
f 95/6/2 94/6/2 96/6/2
f 97/6/2 98/6/2 99/6/2
f 99/6/2 98/6/2 100/6/2
f 101/3/2 102/3/2 105/3/2
f 105/3/2 102/3/2 106/3/2
f 103/3/2 104/3/2 107/3/2
f 107/3/2 104/3/2 108/3/2
f 109/6/2 110/6/2 112/6/2
f 110/6/2 111/6/2 112/6/2
f 112/6/2 111/6/2 113/6/2
f 113/6/2 111/6/2 114/6/2
f 114/6/2 111/6/2 115/6/2
f 116/5/2 117/5/2 118/5/2
f 118/5/2 117/5/2 119/5/2
f 120/5/2 121/5/2 122/5/2
f 122/5/2 121/5/2 123/5/2
f 124/3/2 125/3/2 129/3/2
f 129/3/2 125/3/2 130/3/2
f 126/3/2 127/3/2 131/3/2
f 131/3/2 127/3/2 132/3/2
f 128/3/2 129/3/2 134/3/2
f 134/3/2 129/3/2 135/3/2
f 132/3/2 133/3/2 136/3/2
f 136/3/2 133/3/2 137/3/2
f 138/6/2 139/6/2 140/6/2
f 140/6/2 139/6/2 141/6/2
f 141/6/2 142/6/2 143/6/2
f 143/6/2 142/6/2 144/6/2
f 145/3/2 146/3/2 148/3/2
f 148/3/2 146/3/2 149/3/2
f 147/3/2 148/3/2 151/3/2
f 151/3/2 148/3/2 152/3/2
f 149/3/2 150/3/2 153/3/2
f 153/3/2 150/3/2 154/3/2
f 155/6/2 156/6/2 157/6/2
f 157/6/2 156/6/2 158/6/2
f 158/1/2 159/1/2 160/1/2
f 160/1/2 159/1/2 161/1/2
f 161/6/2 162/6/2 163/6/2
f 163/6/2 162/6/2 164/6/2
f 165/3/2 166/3/2 167/3/2
f 167/3/2 166/3/2 168/3/2
f 169/6/2 170/6/2 171/6/2
f 171/6/2 170/6/2 172/6/2
f 172/6/2 173/6/2 174/6/2
f 174/6/2 173/6/2 175/6/2
f 178/3/3 177/3/3 176/3/3
f 179/3/3 177/3/3 178/3/3
f 183/3/3 181/3/3 180/3/3
f 184/3/3 181/3/3 183/3/3
f 185/3/3 183/3/3 182/3/3
f 186/3/3 183/3/3 185/3/3
f 188/3/3 187/3/3 186/3/3
f 189/3/3 187/3/3 188/3/3
f 195/3/3 191/3/3 190/3/3
f 196/3/3 191/3/3 195/3/3
f 197/6/3 193/6/3 192/6/3
f 198/6/3 193/6/3 197/6/3
f 200/3/3 195/3/3 194/3/3
f 201/3/3 195/3/3 200/3/3
f 202/6/3 199/6/3 198/6/3
f 203/6/3 199/6/3 202/6/3
f 209/6/3 205/6/3 204/6/3
f 210/6/3 205/6/3 209/6/3
f 211/3/3 207/3/3 206/3/3
f 212/3/3 207/3/3 211/3/3
f 214/6/3 209/6/3 208/6/3
f 215/6/3 209/6/3 214/6/3
f 216/3/3 213/3/3 212/3/3
f 217/3/3 213/3/3 216/3/3
f 220/6/3 219/6/3 218/6/3
f 221/6/3 219/6/3 220/6/3
f 224/1/3 222/1/3 221/1/3
f 225/1/3 222/1/3 224/1/3
f 228/5/3 224/5/3 223/5/3
f 229/5/3 224/5/3 228/5/3
f 230/6/3 226/6/3 225/6/3
f 231/6/3 226/6/3 230/6/3
f 233/5/3 229/5/3 228/5/3
f 233/5/3 228/5/3 227/5/3
f 234/5/3 229/5/3 233/5/3
f 235/5/3 229/5/3 234/5/3
f 236/5/3 233/5/3 232/5/3
f 236/5/3 234/5/3 233/5/3
f 237/5/3 234/5/3 236/5/3
f 238/5/3 234/5/3 237/5/3
f 239/5/3 234/5/3 238/5/3
f 241/5/3 238/5/3 237/5/3
f 242/5/3 238/5/3 241/5/3
f 243/6/3 240/6/3 239/6/3
f 244/6/3 240/6/3 243/6/3
f 246/1/3 243/1/3 242/1/3
f 247/1/3 243/1/3 246/1/3
f 248/6/3 246/6/3 245/6/3
f 249/6/3 246/6/3 248/6/3
f 252/6/3 251/6/3 250/6/3
f 253/6/3 251/6/3 252/6/3
f 255/6/3 254/6/3 253/6/3
f 256/6/3 254/6/3 255/6/3
f 260/6/3 258/6/3 257/6/3
f 261/6/3 258/6/3 260/6/3
f 262/6/3 260/6/3 259/6/3
f 263/6/3 260/6/3 262/6/3
f 266/3/3 265/3/3 264/3/3
f 267/3/3 265/3/3 266/3/3
f 270/3/3 269/3/3 268/3/3
f 271/3/3 269/3/3 270/3/3
f 274/3/3 273/3/3 272/3/3
f 275/3/3 273/3/3 274/3/3
f 276/3/4 277/3/4 278/3/4
f 278/3/4 277/3/4 279/3/4
f 280/3/4 281/3/4 282/3/4
f 282/3/4 281/3/4 283/3/4
f 284/3/4 285/3/4 286/3/4
f 286/3/4 285/3/4 287/3/4
f 288/6/4 289/6/4 290/6/4
f 290/6/4 289/6/4 291/6/4
f 290/5/4 291/5/4 294/5/4
f 291/6/4 292/6/4 295/6/4
f 294/5/4 291/5/4 295/5/4
f 295/6/4 292/6/4 296/6/4
f 293/5/4 294/5/4 298/5/4
f 294/5/4 295/5/4 298/5/4
f 298/5/4 295/5/4 299/5/4
f 299/5/4 295/5/4 300/5/4
f 297/5/4 298/5/4 301/5/4
f 298/5/4 299/5/4 301/5/4
f 301/5/4 299/5/4 302/5/4
f 302/5/4 299/5/4 303/5/4
f 303/5/4 299/5/4 304/5/4
f 302/5/4 303/5/4 306/5/4
f 303/4/4 304/4/4 307/4/4
f 306/5/4 303/5/4 307/5/4
f 304/6/4 305/6/4 308/6/4
f 307/4/4 304/4/4 308/4/4
f 308/6/4 305/6/4 309/6/4
f 306/6/4 307/6/4 310/6/4
f 310/6/4 307/6/4 311/6/4
f 312/6/4 313/6/4 316/6/4
f 314/3/4 315/3/4 319/3/4
f 319/3/4 315/3/4 320/3/4
f 316/6/4 317/6/4 321/6/4
f 312/6/4 316/6/4 321/6/4
f 321/6/4 317/6/4 322/6/4
f 318/3/4 319/3/4 323/3/4
f 323/3/4 319/3/4 324/3/4
f 325/3/4 326/3/4 329/3/4
f 329/3/4 326/3/4 330/3/4
f 327/6/4 328/6/4 332/6/4
f 332/6/4 328/6/4 333/6/4
f 330/3/4 331/3/4 334/3/4
f 334/3/4 331/3/4 335/3/4
f 327/6/4 332/6/4 336/6/4
f 336/6/4 332/6/4 337/6/4
f 338/3/4 339/3/4 341/3/4
f 341/3/4 339/3/4 342/3/4
f 340/3/4 341/3/4 343/3/4
f 343/3/4 341/3/4 344/3/4
f 344/3/4 345/3/4 346/3/4
f 346/3/4 345/3/4 347/3/4
f 348/3/4 349/3/4 350/3/4
f 350/3/4 349/3/4 351/3/4
f 355/3/5 353/3/5 352/3/5
f 356/3/5 353/3/5 355/3/5
f 358/3/5 355/3/5 354/3/5
f 358/3/5 357/3/5 356/3/5
f 358/3/5 356/3/5 355/3/5
f 359/3/5 357/3/5 358/3/5
f 360/3/5 357/3/5 359/3/5
f 361/3/5 357/3/5 360/3/5
f 362/3/5 360/3/5 359/3/5
f 363/3/5 360/3/5 362/3/5
f 367/3/5 365/3/5 364/3/5
f 368/3/5 365/3/5 367/3/5
f 371/3/5 367/3/5 366/3/5
f 372/3/5 367/3/5 371/3/5
f 373/3/5 369/3/5 368/3/5
f 374/3/5 369/3/5 373/3/5
f 376/3/5 371/3/5 370/3/5
f 377/3/5 371/3/5 376/3/5
f 380/3/5 375/3/5 374/3/5
f 381/3/5 375/3/5 380/3/5
f 382/3/5 378/3/5 377/3/5
f 383/3/5 378/3/5 382/3/5
f 384/3/5 380/3/5 379/3/5
f 385/3/5 380/3/5 384/3/5
f 386/3/5 384/3/5 383/3/5
f 387/3/5 384/3/5 386/3/5
f 391/6/5 389/6/5 388/6/5
f 392/6/5 389/6/5 391/6/5
f 394/5/5 391/5/5 390/5/5
f 395/6/5 393/6/5 392/6/5
f 395/5/5 391/5/5 394/5/5
f 395/6/5 392/6/5 391/6/5
f 396/6/5 393/6/5 395/6/5
f 401/6/5 398/6/5 397/6/5
f 402/6/5 398/6/5 401/6/5
f 403/5/5 400/5/5 399/5/5
f 404/5/5 400/5/5 403/5/5
f 407/6/5 406/6/5 405/6/5
f 408/6/5 406/6/5 407/6/5
f 412/6/5 410/6/5 409/6/5
f 413/6/5 410/6/5 412/6/5
f 415/6/5 412/6/5 411/6/5
f 415/6/5 413/6/5 412/6/5
f 416/5/5 414/5/5 413/5/5
f 416/6/5 413/6/5 415/6/5
f 417/5/5 414/5/5 416/5/5
f 420/6/5 419/6/5 418/6/5
f 421/6/5 419/6/5 420/6/5
f 424/6/5 423/6/5 422/6/5
f 425/6/5 423/6/5 424/6/5
f 426/2/6 427/2/6 429/2/6
f 429/2/6 427/2/6 430/2/6
f 428/2/6 429/2/6 432/2/6
f 430/2/6 431/2/6 432/2/6
f 429/2/6 430/2/6 432/2/6
f 432/2/6 431/2/6 433/2/6
f 428/2/6 432/2/6 434/2/6
f 433/2/6 431/2/6 435/2/6
f 428/2/6 434/2/6 436/2/6
f 434/2/6 435/2/6 436/2/6
f 436/2/6 435/2/6 437/2/6
f 435/2/6 431/2/6 438/2/6
f 437/2/6 435/2/6 438/2/6
f 438/2/6 431/2/6 439/2/6
f 437/2/6 438/2/6 440/2/6
f 440/2/6 438/2/6 441/2/6
f 442/3/6 443/3/6 445/3/6
f 445/3/6 443/3/6 446/3/6
f 444/3/6 445/3/6 449/3/6
f 449/3/6 445/3/6 450/3/6
f 446/3/6 447/3/6 451/3/6
f 451/3/6 447/3/6 452/3/6
f 448/3/6 449/3/6 454/3/6
f 454/3/6 449/3/6 455/3/6
f 452/3/6 453/3/6 458/3/6
f 458/3/6 453/3/6 459/3/6
f 455/3/6 456/3/6 460/3/6
f 460/3/6 456/3/6 461/3/6
f 457/3/6 458/3/6 462/3/6
f 462/3/6 458/3/6 463/3/6
f 461/3/6 462/3/6 464/3/6
f 464/3/6 462/3/6 465/3/6
f 466/6/6 467/6/6 468/6/6
f 468/6/6 467/6/6 469/6/6
f 469/6/6 470/6/6 471/6/6
f 471/6/6 470/6/6 472/6/6
f 473/6/6 474/6/6 476/6/6
f 476/6/6 474/6/6 477/6/6
f 475/5/6 476/5/6 479/5/6
f 479/5/6 476/5/6 480/5/6
f 477/1/6 478/1/6 481/1/6
f 481/1/6 478/1/6 482/1/6
f 482/6/6 483/6/6 484/6/6
f 484/6/6 483/6/6 485/6/6
f 486/6/6 487/6/6 488/6/6
f 488/6/6 487/6/6 489/6/6
f 489/6/6 490/6/6 491/6/6
f 491/6/6 490/6/6 492/6/6
f 493/6/6 494/6/6 496/6/6
f 496/6/6 494/6/6 497/6/6
f 495/6/6 496/6/6 500/6/6
f 500/6/6 496/6/6 501/6/6
f 498/5/6 499/5/6 502/5/6
f 502/5/6 499/5/6 503/5/6
f 504/6/6 505/6/6 507/6/6
f 507/6/6 505/6/6 508/6/6
f 506/1/6 507/1/6 510/1/6
f 510/1/6 507/1/6 511/1/6
f 509/6/6 510/6/6 512/6/6
f 512/6/6 510/6/6 513/6/6
f 514/6/6 515/6/6 517/6/6
f 517/6/6 515/6/6 518/6/6
f 516/6/6 517/6/6 519/6/6
f 519/6/6 517/6/6 520/6/6
