# MagicaVoxel @ Ephtracy

# group
o 

# material
mtllib 鉄棒.mtl
usemtl palette

# normals
vn -1 0 0
vn 1 0 0
vn 0 0 1
vn 0 0 -1
vn 0 -1 0
vn 0 1 0

# texcoords
vt 0.0175781 0.5
vt 0.822266 0.5
vt 0.841797 0.5
vt 0.966797 0.5

# verts
v -2 2 0.2
v -2 2 -0.2
v -2 2.3 0.2
v -2 2.3 -0.2
v -1.9 0 0.0999999
v -1.9 0 -0.1
v -1.9 2 0.0999999
v -1.9 2 -0.1
v -0.2 2 0.2
v -0.2 2 -0.2
v -0.2 2.1 0.0999999
v -0.2 2.1 -0.1
v -0.2 2.2 0.0999999
v -0.2 2.2 -0.1
v -0.2 2.3 0.2
v -0.2 2.3 -0.2
v -0.2 3 0.2
v -0.2 3 -0.2
v -0.2 3.3 0.2
v -0.2 3.3 -0.2
v -0.0999999 0 0.0999999
v -0.0999999 0 -0.1
v -0.0999999 2 0.0999999
v -0.0999999 2 -0.1
v -0.0999999 2.3 0.0999999
v -0.0999999 2.3 -0.1
v -0.0999999 3 0.0999999
v -0.0999999 3 -0.1
v 1.6 3 0.2
v 1.6 3 -0.2
v 1.6 3.1 0.0999999
v 1.6 3.1 -0.1
v 1.6 3.2 0.0999999
v 1.6 3.2 -0.1
v 1.6 3.3 0.2
v 1.6 3.3 -0.2
v 1.7 0 0.0999999
v 1.7 0 -0.1
v 1.7 3 0.0999999
v 1.7 3 -0.1
v -1.7 0 0.0999999
v -1.7 0 -0.1
v -1.7 2 0.0999999
v -1.7 2 -0.1
v -1.6 2 0.2
v -1.6 2 -0.2
v -1.6 2.1 0.0999999
v -1.6 2.1 -0.1
v -1.6 2.2 0.0999999
v -1.6 2.2 -0.1
v -1.6 2.3 0.2
v -1.6 2.3 -0.2
v 0.1 0 0.0999999
v 0.1 0 -0.1
v 0.1 2 0.0999999
v 0.1 2 -0.1
v 0.1 2.3 0.0999999
v 0.1 2.3 -0.1
v 0.1 3 0.0999999
v 0.1 3 -0.1
v 0.2 2 0.2
v 0.2 2 -0.2
v 0.2 2.3 0.2
v 0.2 2.3 -0.2
v 0.2 3 0.2
v 0.2 3 -0.2
v 0.2 3.1 0.0999999
v 0.2 3.1 -0.1
v 0.2 3.2 0.0999999
v 0.2 3.2 -0.1
v 0.2 3.3 0.2
v 0.2 3.3 -0.2
v 1.9 0 0.0999999
v 1.9 0 -0.1
v 1.9 3 0.0999999
v 1.9 3 -0.1
v 2 3 0.2
v 2 3 -0.2
v 2 3.3 0.2
v 2 3.3 -0.2
v -2 2 0.2
v -2 2.3 0.2
v -1.6 2 0.2
v -1.6 2.3 0.2
v -0.2 2 0.2
v -0.2 2.3 0.2
v -0.2 3 0.2
v -0.2 3.3 0.2
v 0.2 2 0.2
v 0.2 2.3 0.2
v 0.2 3 0.2
v 0.2 3.3 0.2
v 1.6 3 0.2
v 1.6 3.3 0.2
v 2 3 0.2
v 2 3.3 0.2
v -1.9 0 0.0999999
v -1.9 2 0.0999999
v -1.7 0 0.0999999
v -1.7 2 0.0999999
v -1.6 2.1 0.0999999
v -1.6 2.2 0.0999999
v -0.2 2.1 0.0999999
v -0.2 2.2 0.0999999
v -0.0999999 0 0.0999999
v -0.0999999 2 0.0999999
v -0.0999999 2.3 0.0999999
v -0.0999999 3 0.0999999
v 0.1 0 0.0999999
v 0.1 2 0.0999999
v 0.1 2.3 0.0999999
v 0.1 3 0.0999999
v 0.2 3.1 0.0999999
v 0.2 3.2 0.0999999
v 1.6 3.1 0.0999999
v 1.6 3.2 0.0999999
v 1.7 0 0.0999999
v 1.7 3 0.0999999
v 1.9 0 0.0999999
v 1.9 3 0.0999999
v -1.9 0 -0.1
v -1.9 2 -0.1
v -1.7 0 -0.1
v -1.7 2 -0.1
v -1.6 2.1 -0.1
v -1.6 2.2 -0.1
v -0.2 2.1 -0.1
v -0.2 2.2 -0.1
v -0.0999999 0 -0.1
v -0.0999999 2 -0.1
v -0.0999999 2.3 -0.1
v -0.0999999 3 -0.1
v 0.1 0 -0.1
v 0.1 2 -0.1
v 0.1 2.3 -0.1
v 0.1 3 -0.1
v 0.2 3.1 -0.1
v 0.2 3.2 -0.1
v 1.6 3.1 -0.1
v 1.6 3.2 -0.1
v 1.7 0 -0.1
v 1.7 3 -0.1
v 1.9 0 -0.1
v 1.9 3 -0.1
v -2 2 -0.2
v -2 2.3 -0.2
v -1.6 2 -0.2
v -1.6 2.3 -0.2
v -0.2 2 -0.2
v -0.2 2.3 -0.2
v -0.2 3 -0.2
v -0.2 3.3 -0.2
v 0.2 2 -0.2
v 0.2 2.3 -0.2
v 0.2 3 -0.2
v 0.2 3.3 -0.2
v 1.6 3 -0.2
v 1.6 3.3 -0.2
v 2 3 -0.2
v 2 3.3 -0.2
v -1.9 0 0.0999999
v -1.7 0 0.0999999
v -0.0999999 0 0.0999999
v 0.1 0 0.0999999
v 1.7 0 0.0999999
v 1.9 0 0.0999999
v -1.9 0 -0.1
v -1.7 0 -0.1
v -0.0999999 0 -0.1
v 0.1 0 -0.1
v 1.7 0 -0.1
v 1.9 0 -0.1
v -2 2 0.2
v -1.6 2 0.2
v -0.2 2 0.2
v 0.2 2 0.2
v -1.9 2 0.0999999
v -1.7 2 0.0999999
v -0.0999999 2 0.0999999
v 0.1 2 0.0999999
v -1.9 2 -0.1
v -1.7 2 -0.1
v -0.0999999 2 -0.1
v 0.1 2 -0.1
v -2 2 -0.2
v -1.6 2 -0.2
v -0.2 2 -0.2
v 0.2 2 -0.2
v -1.6 2.1 0.0999999
v -0.2 2.1 0.0999999
v -1.6 2.1 -0.1
v -0.2 2.1 -0.1
v -0.2 3 0.2
v 0.2 3 0.2
v 1.6 3 0.2
v 2 3 0.2
v -0.0999999 3 0.0999999
v 0.1 3 0.0999999
v 1.7 3 0.0999999
v 1.9 3 0.0999999
v -0.0999999 3 -0.1
v 0.1 3 -0.1
v 1.7 3 -0.1
v 1.9 3 -0.1
v -0.2 3 -0.2
v 0.2 3 -0.2
v 1.6 3 -0.2
v 2 3 -0.2
v 0.2 3.1 0.0999999
v 1.6 3.1 0.0999999
v 0.2 3.1 -0.1
v 1.6 3.1 -0.1
v -1.6 2.2 0.0999999
v -0.2 2.2 0.0999999
v -1.6 2.2 -0.1
v -0.2 2.2 -0.1
v -2 2.3 0.2
v -1.6 2.3 0.2
v -0.2 2.3 0.2
v 0.2 2.3 0.2
v -0.0999999 2.3 0.0999999
v 0.1 2.3 0.0999999
v -0.0999999 2.3 -0.1
v 0.1 2.3 -0.1
v -2 2.3 -0.2
v -1.6 2.3 -0.2
v -0.2 2.3 -0.2
v 0.2 2.3 -0.2
v 0.2 3.2 0.0999999
v 1.6 3.2 0.0999999
v 0.2 3.2 -0.1
v 1.6 3.2 -0.1
v -0.2 3.3 0.2
v 0.2 3.3 0.2
v 1.6 3.3 0.2
v 2 3.3 0.2
v -0.2 3.3 -0.2
v 0.2 3.3 -0.2
v 1.6 3.3 -0.2
v 2 3.3 -0.2

# faces
f 3/3/1 2/3/1 1/3/1
f 4/3/1 2/3/1 3/3/1
f 7/3/1 6/3/1 5/3/1
f 8/3/1 6/3/1 7/3/1
f 11/3/1 10/3/1 9/3/1
f 12/3/1 10/3/1 11/3/1
f 13/3/1 11/3/1 9/3/1
f 14/3/1 10/3/1 12/3/1
f 15/3/1 13/3/1 9/3/1
f 15/3/1 14/3/1 13/3/1
f 16/3/1 10/3/1 14/3/1
f 16/3/1 14/3/1 15/3/1
f 19/3/1 18/3/1 17/3/1
f 20/3/1 18/3/1 19/3/1
f 23/1/1 22/1/1 21/1/1
f 24/1/1 22/1/1 23/1/1
f 27/1/1 26/1/1 25/1/1
f 28/1/1 26/1/1 27/1/1
f 31/3/1 30/3/1 29/3/1
f 32/3/1 30/3/1 31/3/1
f 33/3/1 31/3/1 29/3/1
f 34/3/1 30/3/1 32/3/1
f 35/3/1 33/3/1 29/3/1
f 35/3/1 34/3/1 33/3/1
f 36/3/1 30/3/1 34/3/1
f 36/3/1 34/3/1 35/3/1
f 39/2/1 38/2/1 37/2/1
f 40/2/1 38/2/1 39/2/1
f 41/3/2 42/3/2 43/3/2
f 43/3/2 42/3/2 44/3/2
f 45/3/2 46/3/2 47/3/2
f 47/3/2 46/3/2 48/3/2
f 45/3/2 47/3/2 49/3/2
f 48/3/2 46/3/2 50/3/2
f 45/3/2 49/3/2 51/3/2
f 49/3/2 50/3/2 51/3/2
f 50/3/2 46/3/2 52/3/2
f 51/3/2 50/3/2 52/3/2
f 53/1/2 54/1/2 55/1/2
f 55/1/2 54/1/2 56/1/2
f 57/1/2 58/1/2 59/1/2
f 59/1/2 58/1/2 60/1/2
f 61/3/2 62/3/2 63/3/2
f 63/3/2 62/3/2 64/3/2
f 65/3/2 66/3/2 67/3/2
f 67/3/2 66/3/2 68/3/2
f 65/3/2 67/3/2 69/3/2
f 68/3/2 66/3/2 70/3/2
f 65/3/2 69/3/2 71/3/2
f 69/3/2 70/3/2 71/3/2
f 70/3/2 66/3/2 72/3/2
f 71/3/2 70/3/2 72/3/2
f 73/2/2 74/2/2 75/2/2
f 75/2/2 74/2/2 76/2/2
f 77/3/2 78/3/2 79/3/2
f 79/3/2 78/3/2 80/3/2
f 83/3/3 82/3/3 81/3/3
f 84/3/3 82/3/3 83/3/3
f 89/3/3 86/3/3 85/3/3
f 90/3/3 86/3/3 89/3/3
f 91/3/3 88/3/3 87/3/3
f 92/3/3 88/3/3 91/3/3
f 95/3/3 94/3/3 93/3/3
f 96/3/3 94/3/3 95/3/3
f 99/3/3 98/3/3 97/3/3
f 100/3/3 98/3/3 99/3/3
f 103/4/3 102/4/3 101/4/3
f 104/4/3 102/4/3 103/4/3
f 109/1/3 106/1/3 105/1/3
f 110/1/3 106/1/3 109/1/3
f 111/1/3 108/1/3 107/1/3
f 112/1/3 108/1/3 111/1/3
f 115/4/3 114/4/3 113/4/3
f 116/4/3 114/4/3 115/4/3
f 119/2/3 118/2/3 117/2/3
f 120/2/3 118/2/3 119/2/3
f 121/3/4 122/3/4 123/3/4
f 123/3/4 122/3/4 124/3/4
f 125/4/4 126/4/4 127/4/4
f 127/4/4 126/4/4 128/4/4
f 129/1/4 130/1/4 133/1/4
f 133/1/4 130/1/4 134/1/4
f 131/1/4 132/1/4 135/1/4
f 135/1/4 132/1/4 136/1/4
f 137/4/4 138/4/4 139/4/4
f 139/4/4 138/4/4 140/4/4
f 141/2/4 142/2/4 143/2/4
f 143/2/4 142/2/4 144/2/4
f 145/3/4 146/3/4 147/3/4
f 147/3/4 146/3/4 148/3/4
f 149/3/4 150/3/4 153/3/4
f 153/3/4 150/3/4 154/3/4
f 151/3/4 152/3/4 155/3/4
f 155/3/4 152/3/4 156/3/4
f 157/3/4 158/3/4 159/3/4
f 159/3/4 158/3/4 160/3/4
f 167/3/5 162/3/5 161/3/5
f 168/3/5 162/3/5 167/3/5
f 169/1/5 164/1/5 163/1/5
f 170/1/5 164/1/5 169/1/5
f 171/2/5 166/2/5 165/2/5
f 172/2/5 166/2/5 171/2/5
f 177/3/5 174/3/5 173/3/5
f 178/3/5 174/3/5 177/3/5
f 179/3/5 176/3/5 175/3/5
f 180/3/5 176/3/5 179/3/5
f 181/3/5 177/3/5 173/3/5
f 182/3/5 174/3/5 178/3/5
f 183/3/5 179/3/5 175/3/5
f 184/3/5 176/3/5 180/3/5
f 185/3/5 181/3/5 173/3/5
f 185/3/5 182/3/5 181/3/5
f 186/3/5 174/3/5 182/3/5
f 186/3/5 182/3/5 185/3/5
f 187/3/5 184/3/5 183/3/5
f 187/3/5 183/3/5 175/3/5
f 188/3/5 176/3/5 184/3/5
f 188/3/5 184/3/5 187/3/5
f 191/4/5 190/4/5 189/4/5
f 192/4/5 190/4/5 191/4/5
f 197/3/5 194/3/5 193/3/5
f 198/3/5 194/3/5 197/3/5
f 199/3/5 196/3/5 195/3/5
f 200/3/5 196/3/5 199/3/5
f 201/3/5 197/3/5 193/3/5
f 202/3/5 194/3/5 198/3/5
f 203/3/5 199/3/5 195/3/5
f 204/3/5 196/3/5 200/3/5
f 205/3/5 201/3/5 193/3/5
f 205/3/5 202/3/5 201/3/5
f 206/3/5 194/3/5 202/3/5
f 206/3/5 202/3/5 205/3/5
f 207/3/5 204/3/5 203/3/5
f 207/3/5 203/3/5 195/3/5
f 208/3/5 196/3/5 204/3/5
f 208/3/5 204/3/5 207/3/5
f 211/4/5 210/4/5 209/4/5
f 212/4/5 210/4/5 211/4/5
f 213/4/6 214/4/6 215/4/6
f 215/4/6 214/4/6 216/4/6
f 219/3/6 220/3/6 221/3/6
f 221/3/6 220/3/6 222/3/6
f 219/3/6 221/3/6 223/3/6
f 222/3/6 220/3/6 224/3/6
f 217/3/6 218/3/6 225/3/6
f 225/3/6 218/3/6 226/3/6
f 223/3/6 224/3/6 227/3/6
f 219/3/6 223/3/6 227/3/6
f 224/3/6 220/3/6 228/3/6
f 227/3/6 224/3/6 228/3/6
f 229/4/6 230/4/6 231/4/6
f 231/4/6 230/4/6 232/4/6
f 233/3/6 234/3/6 237/3/6
f 237/3/6 234/3/6 238/3/6
f 235/3/6 236/3/6 239/3/6
f 239/3/6 236/3/6 240/3/6
